<?xml version="1.0" encoding="UTF-8"?>
<svg width="14px" height="14px" viewBox="0 0 14 14" version="1.1" xmlns="http://www.w3.org/2000/svg" xmlns:xlink="http://www.w3.org/1999/xlink">
    <!-- Generator: Sketch 48.2 (47327) - http://www.bohemiancoding.com/sketch -->
    <title>Group</title>
    <desc>Created with Sketch.</desc>
    <defs></defs>
    <g id="@Icons/Phone-Gray" stroke="none" stroke-width="1" fill="none" fill-rule="evenodd">
        <g id="Group" fill="#75909C">
            <path d="M2.04964665,1.011842 C1.95974786,0.993813645 1.85186931,0.993813645 1.77995028,1.02987036 C0.809043359,1.4084659 0.197731593,2.79664953 0.0538935307,3.75215255 C-0.395600415,6.85303026 2.04964665,9.53925573 4.29711637,11.3060349 C6.29286949,12.8745021 10.1225579,15.4525574 12.3880074,12.9646439 C12.6756835,12.6581618 13.0172989,12.2074528 12.9993192,11.7567439 C12.9453799,10.9995528 12.2441693,10.458702 11.7047766,10.0440498 C11.2912422,9.73756767 10.4282138,8.89023481 9.88882105,8.90826317 C9.40336759,8.92629153 9.09771171,9.43108557 8.79205583,9.73756767 L8.25266309,10.2784184 C8.1627643,10.3685602 7.0120598,9.61136916 6.8862015,9.52122737 C6.4187278,9.21474527 5.96923385,8.87220645 5.57367918,8.49361092 C5.17812451,8.11501538 4.81852935,7.70036313 4.51287347,7.26768252 C4.42297468,7.141484 3.68580461,6.04175412 3.75772364,5.95161232 C3.75772364,5.95161232 4.38701516,5.26653469 4.56681274,4.9961093 C4.94438766,4.41920182 5.23206378,3.96849285 4.80054959,3.28341522 C4.63873177,3.03101819 4.44095444,2.83270625 4.22519734,2.61636594 C3.84762243,2.25579876 3.47004751,1.87720323 3.03853333,1.57072113 C2.80479648,1.39043754 2.4092418,1.06592708 2.04964665,1.011842 Z" id="Ring" fill-rule="nonzero"></path>
            <path d="M14,7.11111111 C14,3.18375289 10.8162471,0 6.88888889,0 C6.39796911,0 6,0.397969111 6,0.888888889 C6,1.37980867 6.39796911,1.77777778 6.88888889,1.77777778 C9.83440755,1.77777778 12.2222222,4.16559245 12.2222222,7.11111111 C12.2222222,7.60203089 12.6201913,8 13.1111111,8 C13.6020309,8 14,7.60203089 14,7.11111111 Z" id="Combined-Shape"></path>
            <path d="M10,7.33333333 C10,5.49238417 8.50761583,4 6.66666667,4 C6.29847683,4 6,4.29847683 6,4.66666667 C6,5.0348565 6.29847683,5.33333333 6.66666667,5.33333333 C7.77123617,5.33333333 8.66666667,6.22876383 8.66666667,7.33333333 C8.66666667,7.70152317 8.9651435,8 9.33333333,8 C9.70152317,8 10,7.70152317 10,7.33333333 Z" id="Oval-7-Copy" opacity="0.600000024"></path>
        </g>
    </g>
</svg>