<?xml version="1.0" encoding="UTF-8"?>
<svg width="80px" height="80px" viewBox="0 0 80 80" version="1.1" xmlns="http://www.w3.org/2000/svg" xmlns:xlink="http://www.w3.org/1999/xlink">
    <!-- Generator: Sketch 48.2 (47327) - http://www.bohemiancoding.com/sketch -->
    <title>icon-</title>
    <desc>Created with Sketch.</desc>
    <defs></defs>
    <g id="6.0-Franquias" stroke="none" stroke-width="1" fill="none" fill-rule="evenodd" transform="translate(-573.000000, -1928.000000)">
        <g id="Section-04" transform="translate(0.000000, 1560.000000)">
            <g id="Group-6" transform="translate(336.000000, 368.000000)">
                <g id="Section-02-Copy" transform="translate(196.000000, 0.000000)">
                    <g id="Title-of-this-column-+-Nunc-quis-massa-vita-Copy-3-+-Rectangle-15-+-Line-+-Line-3-Copy-45">
                        <g id="icon-" transform="translate(41.000000, 0.000000)">
                            <circle id="Oval-32" fill="#7EEEAB" cx="40" cy="40" r="40"></circle>
                            <g id="coins-copy" transform="translate(51.000000, 26.000000)">
                                <g id="Group-10-Copy-5" transform="translate(0.000000, 33.000000)">
                                    <path d="M7,2 L0,2 C0,2.59695367 0,3.26362033 0,4 C0,5.1045695 3.13400675,6 7,6 L7,2 Z" id="Oval-2-Copy-2" fill="#02D557"></path>
                                    <path d="M14,2 L7,2 C7,2.59695367 7,3.26362033 7,4 C7,5.1045695 10.1340068,6 14,6 L14,2 Z" id="Oval-2-Copy-3" fill="#50E58C" transform="translate(10.500000, 4.000000) scale(-1, 1) translate(-10.500000, -4.000000) "></path>
                                    <ellipse id="Oval-2-Copy-4" fill="#9AF1C3" cx="7" cy="2" rx="7" ry="2"></ellipse>
                                </g>
                                <g id="Group-10-Copy-4" transform="translate(0.000000, 30.000000)">
                                    <path d="M7,2 L0,2 C0,2.59695367 0,3.26362033 0,4 C0,5.1045695 3.13400675,6 7,6 L7,2 Z" id="Oval-2-Copy-2" fill="#02D557"></path>
                                    <path d="M14,2 L7,2 C7,2.59695367 7,3.26362033 7,4 C7,5.1045695 10.1340068,6 14,6 L14,2 Z" id="Oval-2-Copy-3" fill="#50E58C" transform="translate(10.500000, 4.000000) scale(-1, 1) translate(-10.500000, -4.000000) "></path>
                                    <ellipse id="Oval-2-Copy-4" fill="#9AF1C3" cx="7" cy="2" rx="7" ry="2"></ellipse>
                                </g>
                                <g id="Group-10-Copy-3" transform="translate(0.000000, 27.000000)">
                                    <path d="M7,2 L0,2 C0,2.59695367 0,3.26362033 0,4 C0,5.1045695 3.13400675,6 7,6 L7,2 Z" id="Oval-2-Copy-2" fill="#02D557"></path>
                                    <path d="M14,2 L7,2 C7,2.59695367 7,3.26362033 7,4 C7,5.1045695 10.1340068,6 14,6 L14,2 Z" id="Oval-2-Copy-3" fill="#50E58C" transform="translate(10.500000, 4.000000) scale(-1, 1) translate(-10.500000, -4.000000) "></path>
                                    <ellipse id="Oval-2-Copy-4" fill="#9AF1C3" cx="7" cy="2" rx="7" ry="2"></ellipse>
                                </g>
                                <g id="Group-10-Copy-2" transform="translate(0.000000, 24.000000)">
                                    <path d="M7,2 L0,2 C0,2.59695367 0,3.26362033 0,4 C0,5.1045695 3.13400675,6 7,6 L7,2 Z" id="Oval-2-Copy-2" fill="#02D557"></path>
                                    <path d="M14,2 L7,2 C7,2.59695367 7,3.26362033 7,4 C7,5.1045695 10.1340068,6 14,6 L14,2 Z" id="Oval-2-Copy-3" fill="#50E58C" transform="translate(10.500000, 4.000000) scale(-1, 1) translate(-10.500000, -4.000000) "></path>
                                    <ellipse id="Oval-2-Copy-4" fill="#9AF1C3" cx="7" cy="2" rx="7" ry="2"></ellipse>
                                </g>
                                <g id="Group-10-Copy" transform="translate(0.000000, 21.000000)">
                                    <path d="M7,2 L0,2 C0,2.59695367 0,3.26362033 0,4 C0,5.1045695 3.13400675,6 7,6 L7,2 Z" id="Oval-2-Copy-2" fill="#02D557"></path>
                                    <path d="M14,2 L7,2 C7,2.59695367 7,3.26362033 7,4 C7,5.1045695 10.1340068,6 14,6 L14,2 Z" id="Oval-2-Copy-3" fill="#50E58C" transform="translate(10.500000, 4.000000) scale(-1, 1) translate(-10.500000, -4.000000) "></path>
                                    <ellipse id="Oval-2-Copy-4" fill="#9AF1C3" cx="7" cy="2" rx="7" ry="2"></ellipse>
                                </g>
                                <g id="Group-10" transform="translate(0.000000, 18.000000)">
                                    <path d="M7,2 L0,2 C0,2.59695367 0,3.26362033 0,4 C0,5.1045695 3.13400675,6 7,6 L7,2 Z" id="Oval-2-Copy-2" fill="#02D557"></path>
                                    <path d="M14,2 L7,2 C7,2.59695367 7,3.26362033 7,4 C7,5.1045695 10.1340068,6 14,6 L14,2 Z" id="Oval-2-Copy-3" fill="#50E58C" transform="translate(10.500000, 4.000000) scale(-1, 1) translate(-10.500000, -4.000000) "></path>
                                    <ellipse id="Oval-2-Copy-4" fill="#9AF1C3" cx="7" cy="2" rx="7" ry="2"></ellipse>
                                </g>
                                <g id="Group-10-Copy-5" transform="translate(0.000000, 15.000000)">
                                    <path d="M7,2 L0,2 C0,2.59695367 0,3.26362033 0,4 C0,5.1045695 3.13400675,6 7,6 L7,2 Z" id="Oval-2-Copy-2" fill="#02D557"></path>
                                    <path d="M14,2 L7,2 C7,2.59695367 7,3.26362033 7,4 C7,5.1045695 10.1340068,6 14,6 L14,2 Z" id="Oval-2-Copy-3" fill="#50E58C" transform="translate(10.500000, 4.000000) scale(-1, 1) translate(-10.500000, -4.000000) "></path>
                                    <ellipse id="Oval-2-Copy-4" fill="#9AF1C3" cx="7" cy="2" rx="7" ry="2"></ellipse>
                                </g>
                                <g id="Group-10-Copy-4" transform="translate(0.000000, 12.000000)">
                                    <path d="M7,2 L0,2 C0,2.59695367 0,3.26362033 0,4 C0,5.1045695 3.13400675,6 7,6 L7,2 Z" id="Oval-2-Copy-2" fill="#02D557"></path>
                                    <path d="M14,2 L7,2 C7,2.59695367 7,3.26362033 7,4 C7,5.1045695 10.1340068,6 14,6 L14,2 Z" id="Oval-2-Copy-3" fill="#50E58C" transform="translate(10.500000, 4.000000) scale(-1, 1) translate(-10.500000, -4.000000) "></path>
                                    <ellipse id="Oval-2-Copy-4" fill="#9AF1C3" cx="7" cy="2" rx="7" ry="2"></ellipse>
                                </g>
                                <g id="Group-10-Copy-3" transform="translate(0.000000, 9.000000)">
                                    <path d="M7,2 L0,2 C0,2.59695367 0,3.26362033 0,4 C0,5.1045695 3.13400675,6 7,6 L7,2 Z" id="Oval-2-Copy-2" fill="#02D557"></path>
                                    <path d="M14,2 L7,2 C7,2.59695367 7,3.26362033 7,4 C7,5.1045695 10.1340068,6 14,6 L14,2 Z" id="Oval-2-Copy-3" fill="#50E58C" transform="translate(10.500000, 4.000000) scale(-1, 1) translate(-10.500000, -4.000000) "></path>
                                    <ellipse id="Oval-2-Copy-4" fill="#9AF1C3" cx="7" cy="2" rx="7" ry="2"></ellipse>
                                </g>
                                <g id="Group-10-Copy-2" transform="translate(0.000000, 6.000000)">
                                    <path d="M7,2 L0,2 C0,2.59695367 0,3.26362033 0,4 C0,5.1045695 3.13400675,6 7,6 L7,2 Z" id="Oval-2-Copy-2" fill="#02D557"></path>
                                    <path d="M14,2 L7,2 C7,2.59695367 7,3.26362033 7,4 C7,5.1045695 10.1340068,6 14,6 L14,2 Z" id="Oval-2-Copy-3" fill="#50E58C" transform="translate(10.500000, 4.000000) scale(-1, 1) translate(-10.500000, -4.000000) "></path>
                                    <ellipse id="Oval-2-Copy-4" fill="#9AF1C3" cx="7" cy="2" rx="7" ry="2"></ellipse>
                                </g>
                                <g id="Group-10-Copy" transform="translate(0.000000, 3.000000)">
                                    <path d="M7,2 L0,2 C0,2.59695367 0,3.26362033 0,4 C0,5.1045695 3.13400675,6 7,6 L7,2 Z" id="Oval-2-Copy-2" fill="#02D557"></path>
                                    <path d="M14,2 L7,2 C7,2.59695367 7,3.26362033 7,4 C7,5.1045695 10.1340068,6 14,6 L14,2 Z" id="Oval-2-Copy-3" fill="#50E58C" transform="translate(10.500000, 4.000000) scale(-1, 1) translate(-10.500000, -4.000000) "></path>
                                    <ellipse id="Oval-2-Copy-4" fill="#9AF1C3" cx="7" cy="2" rx="7" ry="2"></ellipse>
                                </g>
                                <g id="Group-10">
                                    <path d="M7,2 L0,2 C0,2.59695367 0,3.26362033 0,4 C0,5.1045695 3.13400675,6 7,6 L7,2 Z" id="Oval-2-Copy-2" fill="#02D557"></path>
                                    <path d="M14,2 L7,2 C7,2.59695367 7,3.26362033 7,4 C7,5.1045695 10.1340068,6 14,6 L14,2 Z" id="Oval-2-Copy-3" fill="#50E58C" transform="translate(10.500000, 4.000000) scale(-1, 1) translate(-10.500000, -4.000000) "></path>
                                    <ellipse id="Oval-2-Copy-4" fill="#9AF1C3" cx="7" cy="2" rx="7" ry="2"></ellipse>
                                </g>
                            </g>
                            <g id="Blocks" transform="translate(10.000000, 11.000000)">
                                <g id="Group-7" transform="translate(0.000000, 15.000000)">
                                    <polygon id="Rectangle-5" fill="#02D557" points="0 11.2 11 16.8 11 35 0 29.4"></polygon>
                                    <polygon id="Rectangle-6" fill="#9AF1C3" transform="translate(11.000000, 11.413738) rotate(-315.000000) translate(-11.000000, -11.413738) " points="6.966955 7.30736473 18.629738 3.64527734 15.033045 15.5201109 3.37026202 19.1821983"></polygon>
                                    <polygon id="Rectangle-5-Copy" fill="#50E58C" transform="translate(16.500000, 23.100000) scale(-1, 1) translate(-16.500000, -23.100000) " points="11 11.2 22 16.8 22 35 11 29.4"></polygon>
                                </g>
                                <g id="Group-7-Copy" transform="translate(13.000000, 22.000000)">
                                    <polygon id="Rectangle-5" fill="#02D557" points="0 11.2 11 16.8 11 35 0 29.4"></polygon>
                                    <polygon id="Rectangle-6" fill="#9AF1C3" transform="translate(11.000000, 11.413738) rotate(-315.000000) translate(-11.000000, -11.413738) " points="6.966955 7.30736473 18.629738 3.64527734 15.033045 15.5201109 3.37026202 19.1821983"></polygon>
                                    <polygon id="Rectangle-5-Copy" fill="#50E58C" transform="translate(16.500000, 23.100000) scale(-1, 1) translate(-16.500000, -23.100000) " points="11 11.2 22 16.8 22 35 11 29.4"></polygon>
                                </g>
                                <g id="Group-7-Copy-2" transform="translate(7.000000, 0.000000)">
                                    <polygon id="Rectangle-5" fill="#02D557" points="0 11.2 11 16.8 11 35 0 29.4"></polygon>
                                    <polygon id="Rectangle-6" fill="#9AF1C3" transform="translate(11.000000, 11.413738) rotate(-315.000000) translate(-11.000000, -11.413738) " points="6.966955 7.30736473 18.629738 3.64527734 15.033045 15.5201109 3.37026202 19.1821983"></polygon>
                                    <polygon id="Rectangle-5-Copy" fill="#50E58C" transform="translate(16.500000, 23.100000) scale(-1, 1) translate(-16.500000, -23.100000) " points="11 11.2 22 16.8 22 35 11 29.4"></polygon>
                                </g>
                            </g>
                        </g>
                    </g>
                </g>
            </g>
        </g>
    </g>
</svg>