<?xml version="1.0" encoding="UTF-8" standalone="no"?>
<svg width="80px" height="80px" viewBox="0 0 80 80" version="1.1" xmlns="http://www.w3.org/2000/svg" xmlns:xlink="http://www.w3.org/1999/xlink">
    <!-- Generator: Sketch 48.1 (47250) - http://www.bohemiancoding.com/sketch -->
    <title>Group</title>
    <desc>Created with Sketch.</desc>
    <defs>
        <circle id="path-1" cx="40" cy="40" r="40"></circle>
    </defs>
    <g id="2.1-Plataforma" stroke="none" stroke-width="1" fill="none" fill-rule="evenodd" transform="translate(-600.000000, -1725.000000)">
        <g id="Section-02-Copy-7" transform="translate(600.000000, 1725.000000)">
            <g id="Group">
                <mask id="mask-2" fill="white">
                    <use xlink:href="#path-1"></use>
                </mask>
                <use id="Mask" fill="#7EEEAB" xlink:href="#path-1"></use>
                <rect id="Rectangle-9" fill="#50E58C" mask="url(#mask-2)" x="32" y="21" width="67" height="46" rx="2"></rect>
                <path d="M27,26 L94,26 L94,63 C94,64.1045695 93.1045695,65 92,65 L29,65 C27.8954305,65 27,64.1045695 27,63 L27,26 Z" id="Rectangle-9" fill="#9AF1C3" mask="url(#mask-2)"></path>
                <path d="M45.830127,44.2679492 L48.660254,42.6339746 L49.660254,44.3660254 L46.830127,46 L49.660254,47.6339746 L48.660254,49.3660254 L45.830127,47.7320508 L45.830127,51 L43.830127,51 L43.830127,47.7320508 L41,49.3660254 L40,47.6339746 L42.830127,46 L40,44.3660254 L41,42.6339746 L43.830127,44.2679492 L43.830127,41 L45.830127,41 L45.830127,44.2679492 Z" id="Combined-Shape" fill="#50E58C" mask="url(#mask-2)"></path>
                <path d="M60.830127,44.2679492 L63.660254,42.6339746 L64.660254,44.3660254 L61.830127,46 L64.660254,47.6339746 L63.660254,49.3660254 L60.830127,47.7320508 L60.830127,51 L58.830127,51 L58.830127,47.7320508 L56,49.3660254 L55,47.6339746 L57.830127,46 L55,44.3660254 L56,42.6339746 L58.830127,44.2679492 L58.830127,41 L60.830127,41 L60.830127,44.2679492 Z" id="Combined-Shape-Copy" fill="#50E58C" mask="url(#mask-2)"></path>
                <path d="M75.830127,44.2679492 L78.660254,42.6339746 L79.660254,44.3660254 L76.830127,46 L79.660254,47.6339746 L78.660254,49.3660254 L75.830127,47.7320508 L75.830127,51 L73.830127,51 L73.830127,47.7320508 L71,49.3660254 L70,47.6339746 L72.830127,46 L70,44.3660254 L71,42.6339746 L73.830127,44.2679492 L73.830127,41 L75.830127,41 L75.830127,44.2679492 Z" id="Combined-Shape-Copy-2" fill="#50E58C" mask="url(#mask-2)"></path>
                <path d="M29,19 L92,19 C93.1045695,19 94,19.8954305 94,21 L94,26 L27,26 L27,21 C27,19.8954305 27.8954305,19 29,19 Z" id="Rectangle-9" fill="#2ADD72" mask="url(#mask-2)"></path>
                <path d="M31.5,21 C32.3284271,21 33,21.6715729 33,22.5 C33,23.3284271 32.3284271,24 31.5,24 C30.6715729,24 30,23.3284271 30,22.5 C30,21.6715729 30.6715729,21 31.5,21 Z M36.5,21 C37.3284271,21 38,21.6715729 38,22.5 C38,23.3284271 37.3284271,24 36.5,24 C35.6715729,24 35,23.3284271 35,22.5 C35,21.6715729 35.6715729,21 36.5,21 Z M41.5,21 C42.3284271,21 43,21.6715729 43,22.5 C43,23.3284271 42.3284271,24 41.5,24 C40.6715729,24 40,23.3284271 40,22.5 C40,21.6715729 40.6715729,21 41.5,21 Z" id="Combined-Shape" fill="#FFFFFF" mask="url(#mask-2)"></path>
                <circle id="Oval-5" fill="#00AD46" mask="url(#mask-2)" cx="22" cy="42" r="12"></circle>
                <path d="M17,40 L27,40 L27,48 L17,48 L17,40 Z M22,35 C24.209139,35 26,36.790861 26,39 L26,40 L18,40 L18,39 C18,36.790861 19.790861,35 22,35 Z M22,37 C20.8954305,37 20,37.8954305 20,39 L20,40 L24,40 L24,39 C24,37.8954305 23.1045695,37 22,37 Z" id="Combined-Shape" fill="#FFFFFF" mask="url(#mask-2)"></path>
            </g>
        </g>
    </g>
</svg>