<?xml version="1.0" encoding="UTF-8"?>
<svg width="6px" height="9px" viewBox="0 0 6 9" version="1.1" xmlns="http://www.w3.org/2000/svg" xmlns:xlink="http://www.w3.org/1999/xlink">
    <!-- Generator: Sketch 48.2 (47327) - http://www.bohemiancoding.com/sketch -->
    <title>icons-arrow-breadcrumb-green</title>
    <desc>Created with Sketch.</desc>
    <defs></defs>
    <g id="Breadcrumbs-(simple)" stroke="none" stroke-width="1" fill="none" fill-rule="evenodd" transform="translate(-110.000000, -16.000000)">
        <path d="M114.800654,19.8341804 L111.521096,16.1591305 C111.429831,16.0568323 111.303073,16 111.176314,16 C111.049556,16 110.922798,16.0568323 110.831533,16.1591305 L110.141969,16.9320501 C110.050703,17.0343483 110,17.1764291 110,17.31851 C110,17.4605908 110.050703,17.6026716 110.141969,17.7049698 L112.636567,20.5 L110.141969,23.2950302 C110.050703,23.3973284 110,23.5394092 110,23.68149 C110,23.8235709 110.050703,23.9656517 110.141969,24.0679499 L110.831533,24.8408695 C110.922798,24.9431677 111.049556,25 111.176314,25 C111.303073,25 111.429831,24.9431677 111.521096,24.8408695 L114.800654,21.1658196 C115.139171,20.7864806 115.139171,20.2135194 114.800654,19.8341804 Z" id="icons-arrow-breadcrumb-green" fill="#02D557"></path>
    </g>
</svg>