<?xml version="1.0" encoding="UTF-8"?>
<svg width="18px" height="18px" viewBox="0 0 18 18" version="1.1" xmlns="http://www.w3.org/2000/svg" xmlns:xlink="http://www.w3.org/1999/xlink">
    <!-- Generator: Sketch 48.2 (47327) - http://www.bohemiancoding.com/sketch -->
    <title>Icons/Check 2</title>
    <desc>Created with Sketch.</desc>
    <defs></defs>
    <g id="@Icons/Check-2" stroke="none" stroke-width="1" fill="none" fill-rule="evenodd" transform="translate(1.000000, 0.000000)">
        <path d="M16.9461204,8.55851129 C16.9461204,13.2835331 13.1164283,17.1170413 8.39611019,17.1170413 C3.67579207,17.1170413 -0.1539,13.2835331 -0.1539,8.55851129 C-0.1539,3.83348952 3.67579207,-1.87046762e-05 8.39611019,-1.87046762e-05 C13.1164283,-1.87046762e-05 16.9461204,3.83348952 16.9461204,8.55851129 Z M14.1406483,6.75319637 C14.1406483,6.56374974 14.0738513,6.37430312 13.9402574,6.24057608 L12.9271703,5.23762335 C12.7935764,5.10389632 12.6154512,5.02588888 12.4261931,5.02588888 C12.2369351,5.02588888 12.0588099,5.10389632 11.925216,5.23762335 L7.38302305,9.77319849 L4.86700442,7.25467274 C4.73341051,7.12094571 4.5552853,7.04293827 4.36602726,7.04293827 C4.17676923,7.04293827 3.99864401,7.12094571 3.8650501,7.25467274 L2.85196296,8.25762547 C2.71836905,8.3913525 2.65157209,8.58079913 2.65157209,8.77024576 C2.65157209,8.95969238 2.71836905,9.13799509 2.85196296,9.27172212 L6.88204589,13.3058209 C7.0156398,13.4395479 7.20489783,13.5175554 7.38302305,13.5175554 C7.57228109,13.5175554 7.76153912,13.4395479 7.89513303,13.3058209 L13.9402574,7.25467274 C14.0738513,7.12094571 14.1406483,6.942643 14.1406483,6.75319637 Z" id="Icons/Check-2" fill="#2ADD72"></path>
    </g>
</svg>