<?xml version="1.0" encoding="UTF-8"?>
<svg width="48px" height="48px" viewBox="0 0 48 48" version="1.1" xmlns="http://www.w3.org/2000/svg" xmlns:xlink="http://www.w3.org/1999/xlink">
    <!-- Generator: Sketch 48.2 (47327) - http://www.bohemiancoding.com/sketch -->
    <title>icon-mail</title>
    <desc>Created with Sketch.</desc>
    <defs>
        <circle id="path-1" cx="24" cy="24" r="24"></circle>
        <path d="M6.94876879,0 L31.3172078,4.4408921e-16 C32.974062,-1.33185217e-15 34.3172078,1.34314575 34.3172078,3 C34.3172078,3.23809208 34.2888642,3.47533764 34.2327753,3.70672882 L30.5967999,18.7067288 C30.2706153,20.0523837 29.0658562,21 27.6812323,21 L3.31279331,21 C1.65593906,21 0.312793313,19.6568542 0.312793313,18 C0.312793313,17.7619079 0.341136878,17.5246624 0.397225721,17.2932712 L4.03320119,2.29327118 C4.35938574,0.947616292 5.56414485,-1.89737919e-16 6.94876879,-4.4408921e-16 Z" id="path-3"></path>
    </defs>
    <g id="5.0-FAQ" stroke="none" stroke-width="1" fill="none" fill-rule="evenodd" transform="translate(-240.000000, -1565.000000)">
        <g id="Contact" transform="translate(0.000000, 1480.000000)">
            <g id="Group-7" transform="translate(240.000000, 85.000000)">
                <g id="icon-mail">
                    <mask id="mask-2" fill="white">
                        <use xlink:href="#path-1"></use>
                    </mask>
                    <use id="Mask" fill="#7EEEAB" xlink:href="#path-1"></use>
                    <path d="M8,17 L19,17 C19.5522847,17 20,17.4477153 20,18 C20,18.5522847 19.5522847,19 19,19 L8,19 C7.44771525,19 7,18.5522847 7,18 C7,17.4477153 7.44771525,17 8,17 Z M8,23 L17,23 C17.5522847,23 18,23.4477153 18,24 C18,24.5522847 17.5522847,25 17,25 L8,25 C7.44771525,25 7,24.5522847 7,24 C7,23.4477153 7.44771525,23 8,23 Z M8,29 L15,29 C15.5522847,29 16,29.4477153 16,30 C16,30.5522847 15.5522847,31 15,31 L8,31 C7.44771525,31 7,30.5522847 7,30 C7,29.4477153 7.44771525,29 8,29 Z" id="Combined-Shape" fill="#FFFFFF" mask="url(#mask-2)"></path>
                    <g id="Rectangle-2" mask="url(#mask-2)">
                        <g transform="translate(18.000000, 14.000000)">
                            <mask id="mask-4" fill="white">
                                <use xlink:href="#path-3"></use>
                            </mask>
                            <use id="Mask" stroke="none" fill="#2ADD72" fill-rule="evenodd" xlink:href="#path-3"></use>
                            <path d="M5.0458019,-2.50304827e-15 L35.5912564,-2.50304827e-15 L19.8349917,9.94993975 C18.7188838,10.6547518 17.2732196,10.5472115 16.2736783,9.68502016 L5.0458019,-2.50304827e-15 Z" id="Rectangle-2" stroke="none" fill="#00AD46" fill-rule="evenodd" mask="url(#mask-4)"></path>
                        </g>
                    </g>
                </g>
            </g>
        </g>
    </g>
</svg>