<?xml version="1.0" encoding="UTF-8" standalone="no"?>
<svg width="80px" height="80px" viewBox="0 0 80 80" version="1.1" xmlns="http://www.w3.org/2000/svg" xmlns:xlink="http://www.w3.org/1999/xlink">
    <!-- Generator: Sketch 48 (47235) - http://www.bohemiancoding.com/sketch -->
    <title>icon-urbankit</title>
    <desc>Created with Sketch.</desc>
    <defs>
        <circle id="path-1" cx="40" cy="40" r="40"></circle>
    </defs>
    <g id="D-1.1.1-Estagio-Internacional-candidato" stroke="none" stroke-width="1" fill="none" fill-rule="evenodd" transform="translate(-960.000000, -2743.000000)">
        <g id="Features" transform="translate(240.000000, 1897.000000)">
            <g id="Itens" transform="translate(0.000000, 502.000000)">
                <g id="06" transform="translate(720.000000, 344.000000)">
                    <g id="icon-urbankit">
                        <mask id="mask-2" fill="white">
                            <use xlink:href="#path-1"></use>
                        </mask>
                        <use id="Oval" fill="#7EEEAB" xlink:href="#path-1"></use>
                        <polygon id="Rectangle-19" fill="#2ADD72" mask="url(#mask-2)" points="20 16.1914894 41 10 41 58.8085106 20 65"></polygon>
                        <polygon id="Rectangle-19-Copy-2" fill="#2ADD72" mask="url(#mask-2)" points="62 16.1914894 83 10 83 58.8085106 62 65"></polygon>
                        <polygon id="Rectangle-19-Copy" fill="#50E58C" mask="url(#mask-2)" points="62 16.1914894 41 10 41 58.8085106 62 65"></polygon>
                        <rect id="Rectangle-21" fill="#02D557" mask="url(#mask-2)" x="7" y="27" width="24" height="46" rx="3"></rect>
                        <rect id="Rectangle-21" fill="#9AF1C3" mask="url(#mask-2)" x="7" y="33" width="24" height="34"></rect>
                        <path d="M51.5,37 C47.8333333,33.3583774 46,30.5250441 46,28.5 C46,25.4624339 48.4624339,23 51.5,23 C54.5375661,23 57,25.4624339 57,28.5 C57,30.5250441 55.1666667,33.3583774 51.5,37 Z M51.5,30 C52.3284271,30 53,29.3284271 53,28.5 C53,27.6715729 52.3284271,27 51.5,27 C50.6715729,27 50,27.6715729 50,28.5 C50,29.3284271 50.6715729,30 51.5,30 Z" id="Combined-Shape" fill="#FFFFFF" mask="url(#mask-2)"></path>
                        <g id="Group-16" mask="url(#mask-2)">
                            <g transform="translate(19.000000, 46.000000)" id="Combined-Shape">
                                <path d="M17.9791847,0 L24,6.02081528 L24,15 C24,16.1045695 23.1045695,17 22,17 L2,17 C0.8954305,17 1.3527075e-16,16.1045695 0,15 L0,2 C-1.3527075e-16,0.8954305 0.8954305,2.02906125e-16 2,0 L17.9791847,0 Z" fill="#00AD46"></path>
                                <path d="M16.9791847,2 L21,6.02081528 L21,12 C21,13.1045695 20.1045695,14 19,14 L9,14 C7.8954305,14 7,13.1045695 7,12 L7,4 C7,2.8954305 7.8954305,2 9,2 L16.9791847,2 Z" fill="#02D557"></path>
                                <path d="M9,4 L11,4 L11,6 L9,6 L9,4 Z M9,7 L13,7 L13,9 L9,9 L9,7 Z M12,4 L14,4 L14,6 L12,6 L12,4 Z M14,7 L17,7 L17,9 L14,9 L14,7 Z M9,10 L10,10 L10,12 L9,12 L9,10 Z M16,10 L17,10 L17,12 L16,12 L16,10 Z M11,10 L15,10 L15,12 L11,12 L11,10 Z M15,4 L17,4 L17,6 L15,6 L15,4 Z" fill="#50E58C"></path>
                            </g>
                        </g>
                    </g>
                </g>
            </g>
        </g>
    </g>
</svg>