<?xml version="1.0" encoding="UTF-8"?>
<svg width="9px" height="7px" viewBox="0 0 9 7" version="1.1" xmlns="http://www.w3.org/2000/svg" xmlns:xlink="http://www.w3.org/1999/xlink">
    <!-- Generator: Sketch 48.2 (47327) - http://www.bohemiancoding.com/sketch -->
    <title>Path</title>
    <desc>Created with Sketch.</desc>
    <defs></defs>
    <g id="7.0.1-Cadastro---Candidato" stroke="none" stroke-width="1" fill="none" fill-rule="evenodd" transform="translate(-624.000000, -729.000000)">
        <g id="Group-4" transform="translate(600.000000, 144.000000)" fill="#2ADD72">
            <g id="Group-5" transform="translate(24.000000, 38.000000)">
                <g id="Group-3" transform="translate(0.000000, 540.000000)">
                    <path d="M8.20281579,8.61952458 L3.81018367,13.0165338 C3.71310892,13.1137053 3.57558637,13.1703887 3.43806382,13.1703887 C3.30863083,13.1703887 3.17110827,13.1137053 3.07403353,13.0165338 L0.145612115,10.0851943 C0.0485373715,9.98802285 0,9.85846089 0,9.7208013 C0,9.58314171 0.0485373715,9.44548212 0.145612115,9.34831064 L0.88176225,8.61952458 C0.978836993,8.52235311 1.10826998,8.46566975 1.24579254,8.46566975 C1.38331509,8.46566975 1.51274808,8.52235311 1.60982282,8.61952458 L3.43806382,10.4495874 L6.73860508,7.15385484 C6.83567983,7.05668336 6.96511282,7 7.10263537,7 C7.24015792,7 7.36959091,7.05668336 7.46666566,7.15385484 L8.20281579,7.8826409 C8.29989053,7.97981237 8.34842791,8.11747196 8.34842791,8.25513155 C8.34842791,8.39279114 8.29989053,8.52235311 8.20281579,8.61952458 Z" id="Path"></path>
                </g>
            </g>
        </g>
    </g>
</svg>