<?xml version="1.0" encoding="UTF-8"?>
<svg width="80px" height="80px" viewBox="0 0 80 80" version="1.1" xmlns="http://www.w3.org/2000/svg" xmlns:xlink="http://www.w3.org/1999/xlink">
    <!-- Generator: Sketch 48.2 (47327) - http://www.bohemiancoding.com/sketch -->
    <title>icon-taxa-franquia</title>
    <desc>Created with Sketch.</desc>
    <defs></defs>
    <g id="6.0-Franquias" stroke="none" stroke-width="1" fill="none" fill-rule="evenodd" transform="translate(-361.000000, -1928.000000)">
        <g id="Section-04" transform="translate(0.000000, 1560.000000)">
            <g id="Group-6" transform="translate(336.000000, 368.000000)">
                <g id="Section-02">
                    <g id="Title-of-this-column-+-Nunc-quis-massa-vita-Copy-3-+-Rectangle-15-+-Line-+-Line-3-Copy-45">
                        <g id="icon-taxa-franquia" transform="translate(25.000000, 0.000000)">
                            <circle id="Oval-32" fill="#7EEEAB" cx="40" cy="40" r="40"></circle>
                            <rect id="Rectangle-4" fill="#02D557" x="20" y="23" width="22" height="35"></rect>
                            <path d="M23,26 L42,26 L42,31 L23,31 L23,26 Z M23,32 L42,32 L42,37 L23,37 L23,32 Z M23,38 L42,38 L42,43 L23,43 L23,38 Z M23,44 L42,44 L42,49 L23,49 L23,44 Z M23,50 L42,50 L42,55 L23,55 L23,50 Z" id="Combined-Shape" fill="#50E58C"></path>
                            <path d="M61.9143906,58 C60.9498629,60.80325 51.9544449,63 41,63 C39.6321832,63 38.2949098,62.9657504 37,62.900347 L37,52.099653 L37,28.5 L62,24 L62,58 L61.9143906,58 Z" id="Combined-Shape" fill="#2ADD72"></path>
                            <path d="M36.9941142,28.9043316 L41.9143906,23 L20,23 C20.9645277,20.19675 29.9599457,18 40.9143906,18 C52.5123704,18 61.9143906,20.4624339 61.9143906,23.5 C61.9143906,26.5375661 52.5123704,29 40.9143906,29 C39.5746258,29 38.2641644,28.9671408 36.9941142,28.9043316 Z" id="Combined-Shape" fill="#00AD46"></path>
                        </g>
                    </g>
                </g>
            </g>
        </g>
    </g>
</svg>