<?xml version="1.0" encoding="UTF-8" standalone="no"?>
<svg width="80px" height="80px" viewBox="0 0 80 80" version="1.1" xmlns="http://www.w3.org/2000/svg" xmlns:xlink="http://www.w3.org/1999/xlink">
    <!-- Generator: Sketch 48.1 (47250) - http://www.bohemiancoding.com/sketch -->
    <title>icon-gerenciar-estagio</title>
    <desc>Created with Sketch.</desc>
    <defs>
        <path d="M33.218196,-4.4408921e-16 C35.6440806,5.15933851 37,10.9213233 37,17 C37,38.0822253 20.6901978,55.3550921 -2.30238051e-11,56.8891941 L0,-1.42108547e-14 L33.218196,3.55271368e-15 Z" id="path-1"></path>
    </defs>
    <g id="2.1-Plataforma" stroke="none" stroke-width="1" fill="none" fill-rule="evenodd" transform="translate(-960.000000, -1726.000000)">
        <g id="Section-02-Copy-8" transform="translate(960.000000, 1726.000000)">
            <g id="icon-gerenciar-estagio">
                <circle id="Oval-32-Copy-2" fill="#7EEEAB" cx="40" cy="40" r="40"></circle>
                <circle id="Oval-3" fill="#02D557" cx="20" cy="40" r="13"></circle>
                <path d="M21,39 L27,39 L27,41 L21,41 L21,47 L19,47 L19,41 L13,41 L13,39 L19,39 L19,33 L21,33 L21,39 Z" id="Combined-Shape" fill="#FFFFFF"></path>
                <g id="Line-2-+-Line-2-Copy-6-+-Line-2-Copy-7-+-Line-2-Copy-8-+-Line-2-Copy-8-+-Line-2-Copy-9-+-Line-2-Copy-10-Mask" transform="translate(43.000000, 23.000000)">
                    <mask id="mask-2" fill="white">
                        <use xlink:href="#path-1"></use>
                    </mask>
                    <use id="Mask" fill="#2ADD72" xlink:href="#path-1"></use>
                    <path d="M9,11 L9,9 L12,9 L12,11 L9,11 Z M16,11 L16,9 L38,9 L38,11 L16,11 Z M9,19 L9,17 L38,17 L38,19 L9,19 Z M9,27 L9,25 L37,25 L37,27 L9,27 Z M9,35 L9,33 L35,33 L35,35 L9,35 Z M9,43 L9,41 L30,41 L30,43 L9,43 Z M9,51 L9,49 L22,49 L22,51 L9,51 Z" id="Combined-Shape" fill="#7EEEAB" fill-rule="nonzero" mask="url(#mask-2)"></path>
                </g>
                <polygon id="Rectangle-20-Copy" fill="#02D557" points="40 80 40 29 43 29 43 80"></polygon>
                <polygon id="Rectangle-20-Copy" fill="#00AD46" points="37 79.5 37 36 40 36 40 80"></polygon>
            </g>
        </g>
    </g>
</svg>