<?xml version="1.0" encoding="UTF-8" standalone="no"?>
<svg width="80px" height="80px" viewBox="0 0 80 80" version="1.1" xmlns="http://www.w3.org/2000/svg" xmlns:xlink="http://www.w3.org/1999/xlink">
    <!-- Generator: Sketch 48 (47235) - http://www.bohemiancoding.com/sketch -->
    <title>icon-emergency</title>
    <desc>Created with Sketch.</desc>
    <defs>
        <circle id="path-1" cx="40" cy="40" r="40"></circle>
    </defs>
    <g id="D-1.1.1-Estagio-Internacional-candidato" stroke="none" stroke-width="1" fill="none" fill-rule="evenodd" transform="translate(-960.000000, -2399.000000)">
        <g id="Features" transform="translate(240.000000, 1897.000000)">
            <g id="Itens" transform="translate(0.000000, 502.000000)">
                <g id="03" transform="translate(720.000000, 0.000000)">
                    <g id="icon-emergency">
                        <mask id="mask-2" fill="white">
                            <use xlink:href="#path-1"></use>
                        </mask>
                        <use id="Oval" fill="#7EEEAB" xlink:href="#path-1"></use>
                        <g id="Group-17" mask="url(#mask-2)">
                            <g transform="translate(15.000000, 15.000000)">
                                <path d="M3,9 L47,9 C48.6568542,9 50,10.3431458 50,12 L50,42 C50,45.3137085 47.3137085,48 44,48 L6,48 C2.6862915,48 4.05812251e-16,45.3137085 0,42 L0,12 C-2.02906125e-16,10.3431458 1.34314575,9 3,9 Z" id="Rectangle-7" fill="#02D557"></path>
                                <path d="M50,41.0829584 L50,45 C50,46.6568542 48.6568542,48 47,48 L43.0829584,48 C43.0283988,47.6747915 43,47.3407122 43,47 C43,43.6862915 45.6862915,41 49,41 C49.3407122,41 49.6747915,41.0283988 50,41.0829584 Z" id="Combined-Shape" fill="#50E58C"></path>
                                <path d="M7,41.0829584 L7,45 C7,46.6568542 5.65685425,48 4,48 L0.0829584402,48 C0.0283987962,47.6747915 0,47.3407122 0,47 C0,43.6862915 2.6862915,41 6,41 C6.34071221,41 6.67479153,41.0283988 7,41.0829584 Z" id="Combined-Shape" fill="#50E58C" transform="translate(3.500000, 44.500000) scale(-1, 1) translate(-3.500000, -44.500000) "></path>
                                <circle id="Oval-2" fill="#FFFFFF" cx="25" cy="30" r="13"></circle>
                                <path d="M28,27 L33,27 L33,33 L28,33 L28,38 L22,38 L22,33 L17,33 L17,27 L22,27 L22,22 L28,22 L28,27 Z" id="Combined-Shape" fill="#00AD46"></path>
                                <path d="M32,9 L32,5 C32,4.44771525 31.5522847,4 31,4 L19,4 C18.4477153,4 18,4.44771525 18,5 L18,9 L14,9 L14,3 C14,1.34314575 15.3431458,-1.39730022e-16 17,-4.4408921e-16 L33,4.4408921e-16 C34.6568542,1.39730022e-16 36,1.34314575 36,3 L36,9 L32,9 Z" id="Combined-Shape" fill="#00AD46"></path>
                            </g>
                        </g>
                    </g>
                </g>
            </g>
        </g>
    </g>
</svg>