<?xml version="1.0" encoding="UTF-8" standalone="no"?>
<svg width="17px" height="17px" viewBox="0 0 17 17" version="1.1" xmlns="http://www.w3.org/2000/svg" xmlns:xlink="http://www.w3.org/1999/xlink">
    <!-- Generator: Sketch 48 (47235) - http://www.bohemiancoding.com/sketch -->
    <title>@Icons/Check 3</title>
    <desc>Created with Sketch.</desc>
    <defs></defs>
    <g id="Symbols" stroke="none" stroke-width="1" fill="none" fill-rule="evenodd">
        <g id="@Icons/Check-3">
            <path d="M16.4461204,8.55851129 C16.4461204,4.10952048 12.8401744,0.499981295 8.39611019,0.499981295 C3.95204598,0.499981295 0.3461,4.10952048 0.3461,8.55851129 C0.3461,13.0075021 3.95204598,16.6170413 8.39611019,16.6170413 C12.8401744,16.6170413 16.4461204,13.0075021 16.4461204,8.55851129 Z" id="Icons/Check-2" stroke="#2ADD72"></path>
            <path d="M12.4228156,7.31952439 L8.03018346,11.7165336 C7.93310871,11.8137051 7.79558616,11.8703885 7.65806361,11.8703885 C7.52863062,11.8703885 7.39110806,11.8137051 7.29403332,11.7165336 L4.3656119,8.78519414 C4.26853716,8.68802266 4.21999979,8.5584607 4.21999979,8.42080111 C4.21999979,8.28314152 4.26853716,8.14548193 4.3656119,8.04831045 L5.10176204,7.31952439 C5.19883678,7.22235292 5.32826977,7.16566956 5.46579233,7.16566956 C5.60331488,7.16566956 5.73274787,7.22235292 5.82982261,7.31952439 L7.65806361,9.14958717 L10.9586049,5.85385464 C11.0556796,5.75668317 11.1851126,5.69999981 11.3226352,5.69999981 C11.4601577,5.69999981 11.5895907,5.75668317 11.6866654,5.85385464 L12.4228156,6.58264071 C12.5198903,6.67981218 12.5684277,6.81747177 12.5684277,6.95513136 C12.5684277,7.09279095 12.5198903,7.22235292 12.4228156,7.31952439 Z" id="Path" fill="#2ADD72"></path>
        </g>
    </g>
</svg>