<?xml version="1.0" encoding="UTF-8" standalone="no"?>
<svg width="80px" height="80px" viewBox="0 0 80 80" version="1.1" xmlns="http://www.w3.org/2000/svg" xmlns:xlink="http://www.w3.org/1999/xlink">
    <!-- Generator: Sketch 48.1 (47250) - http://www.bohemiancoding.com/sketch -->
    <title>icon-folha-pagamento</title>
    <desc>Created with Sketch.</desc>
    <defs>
        <circle id="path-1" cx="40" cy="40" r="40"></circle>
        <path d="M36,57.802499 C15.7867092,55.7956013 -7.10542736e-15,38.7413924 -7.10542736e-15,18 C-7.10542736e-15,11.5255527 1.53822971,5.4103782 4.26916562,-3.15303339e-14 L36,0 L36,57.802499 Z" id="path-3"></path>
    </defs>
    <g id="2.1-Plataforma" stroke="none" stroke-width="1" fill="none" fill-rule="evenodd" transform="translate(-960.000000, -1149.000000)">
        <g id="Section-02-Copy-5" transform="translate(960.000000, 1149.000000)">
            <g id="icon-folha-pagamento" transform="translate(40.000000, 40.000000) scale(-1, 1) translate(-40.000000, -40.000000) ">
                <mask id="mask-2" fill="white">
                    <use xlink:href="#path-1"></use>
                </mask>
                <use id="Oval-32-Copy" fill="#7EEEAB" xlink:href="#path-1"></use>
                <g id="Group-2" mask="url(#mask-2)">
                    <g transform="translate(53.000000, 0.000000)">
                        <path d="M0,0 L5,0 L5,41 L0,41 L0,0 Z M10,0 L15,0 L15,41 L10,41 L10,0 Z" id="Combined-Shape" fill="#02D557"></path>
                        <polygon id="Rectangle-8-Copy-4" fill="#9AF1C3" points="0 41 15 41 7.5 58"></polygon>
                        <path d="M5,0 L10,0 L10,41 L5,41 L5,0 Z M5,52 L10,52 L7.5,58 L5,52 Z" id="Combined-Shape" fill="#00AD46"></path>
                    </g>
                </g>
                <polygon id="Rectangle-18" fill="#02D557" mask="url(#mask-2)" transform="translate(37.500000, 53.500000) scale(-1, 1) translate(-37.500000, -53.500000) " points="36 80 36 79 36 27 39 27 39 80"></polygon>
                <polygon id="Rectangle-18-Copy" fill="#00AD46" mask="url(#mask-2)" transform="translate(40.500000, 56.000000) scale(-1, 1) translate(-40.500000, -56.000000) " points="39 79 39 32 42 32 42 80 39 80"></polygon>
                <g id="Line-2-+-Line-2-Copy-+-Line-2-Copy-2-+-Line-2-Copy-3-+-Line-2-Copy-4-+-Line-2-Copy-5-Mask" mask="url(#mask-2)">
                    <g transform="translate(0.000000, 22.000000)">
                        <mask id="mask-4" fill="white">
                            <use xlink:href="#path-3"></use>
                        </mask>
                        <use id="Mask" stroke="none" fill="#2ADD72" fill-rule="evenodd" xlink:href="#path-3"></use>
                    </g>
                </g>
                <polyline id="Path-3" stroke="#FFFFFF" stroke-width="3" stroke-linecap="round" stroke-linejoin="round" mask="url(#mask-2)" transform="translate(16.030000, 49.582646) scale(-1, 1) translate(-16.030000, -49.582646) " points="8.19201942 50.6546225 12.702689 55.165292 23.867981 44"></polyline>
            </g>
        </g>
    </g>
</svg>