<?xml version="1.0" encoding="UTF-8"?>
<svg width="48px" height="48px" viewBox="0 0 48 48" version="1.1" xmlns="http://www.w3.org/2000/svg" xmlns:xlink="http://www.w3.org/1999/xlink">
    <!-- Generator: Sketch 48.2 (47327) - http://www.bohemiancoding.com/sketch -->
    <title>Group 15</title>
    <desc>Created with Sketch.</desc>
    <defs>
        <rect id="path-1" x="0" y="0" width="48" height="48" rx="24"></rect>
        <linearGradient x1="50%" y1="0%" x2="50%" y2="73.1146365%" id="linearGradient-3">
            <stop stop-color="#E9E9E9" offset="0%"></stop>
            <stop stop-color="#FFFFFF" offset="100%"></stop>
        </linearGradient>
        <linearGradient x1="13.4426818%" y1="36.5573182%" x2="86.5573182%" y2="36.5573182%" id="linearGradient-4">
            <stop stop-color="#E9E9E9" offset="0%"></stop>
            <stop stop-color="#FFFFFF" offset="100%"></stop>
        </linearGradient>
        <linearGradient x1="86.5573182%" y1="36.5573182%" x2="13.4426818%" y2="36.5573182%" id="linearGradient-5">
            <stop stop-color="#E9E9E9" offset="0%"></stop>
            <stop stop-color="#FFFFFF" offset="100%"></stop>
        </linearGradient>
    </defs>
    <g id="7.0-Cadastro---Candidato" stroke="none" stroke-width="1" fill="none" fill-rule="evenodd" transform="translate(-564.000000, -232.000000)">
        <g id="Group-5" transform="translate(540.000000, 216.000000)">
            <g id="Group-15" transform="translate(24.000000, 16.000000)">
                <g id="Oval-2-+-Line-4-Mask">
                    <mask id="mask-2" fill="white">
                        <use xlink:href="#path-1"></use>
                    </mask>
                    <use id="Mask" fill="#7EEEAB" xlink:href="#path-1"></use>
                    <path d="M40,48 C40,42.7532949 32.7246272,38.5 23.75,38.5 C14.7753728,38.5 7.5,42.7532949 7.5,48" id="Oval-2" fill="#00AD46" mask="url(#mask-2)"></path>
                </g>
                <g id="Group-13" transform="translate(24.250000, 22.500000) scale(-1, 1) translate(-24.250000, -22.500000) translate(8.500000, 1.500000)">
                    <polyline id="Combined-Shape" fill="url(#linearGradient-3)" points="12 33 12 37.5 12.5357143 38 15.75 41 18.9642857 38 19.5 37.5 19.5 33"></polyline>
                    <path d="M28,14 L28,22.5 C28,29.127417 22.627417,34.5 16,34.5 C9.372583,34.5 4,29.127417 4,22.5 L4,14" id="Rectangle-4" fill="#FFFFFF"></path>
                    <path d="M14,23.5 L16.5,23.5 L16.5,26.5 L14,26.5 C13.1715729,26.5 12.5,25.8284271 12.5,25 L12.5,25 C12.5,24.1715729 13.1715729,23.5 14,23.5 Z" id="Rectangle-5" fill="url(#linearGradient-4)"></path>
                    <path d="M30.25,19.5 L30.5,19.5 L30.5,24 L30.25,24 C29.0073593,24 28,22.9926407 28,21.75 L28,21.75 C28,20.5073593 29.0073593,19.5 30.25,19.5 Z" id="Rectangle-5-Copy" fill="url(#linearGradient-5)" transform="translate(29.250000, 21.750000) scale(-1, 1) translate(-29.250000, -21.750000) "></path>
                    <path d="M13.2356277,3.49497986 L16.5,3.49497986 C23.3432298,3.49497986 28.9514855,8.78253215 29.4621104,15.4949799 L29.5,15.4949799 L29.5,18.2449799 C29.5,19.4876205 28.4926407,20.4949799 27.25,20.4949799 C26.0073593,20.4949799 25,19.4876205 25,18.2449799 L25,16.4949799 L10,16.4949799 L10,16.4850975 C9.83459899,16.4949853 9.66788512,16.5 9.5,16.5 C4.94365081,16.5 1.25,12.8063492 1.25,8.25 C1.25,3.69365081 4.94365081,0 9.5,0 C9.84943446,0 10.1937949,0.0217246759 10.5318042,0.0638970634 C10.5604937,1.71657581 11.699976,3.09847782 13.2356277,3.49497986 Z" id="Combined-Shape" fill="#2ADD72"></path>
                    <path d="M3.75,19.5 L4,19.5 L4,24 L3.75,24 C2.50735931,24 1.5,22.9926407 1.5,21.75 L1.5,21.75 C1.5,20.5073593 2.50735931,19.5 3.75,19.5 Z" id="Rectangle-5" fill="url(#linearGradient-5)"></path>
                </g>
            </g>
        </g>
    </g>
</svg>