<?xml version="1.0" encoding="UTF-8" standalone="no"?>
<svg width="111px" height="96px" viewBox="0 0 111 96" version="1.1" xmlns="http://www.w3.org/2000/svg" xmlns:xlink="http://www.w3.org/1999/xlink">
    <!-- Generator: Sketch 47.1 (45422) - http://www.bohemiancoding.com/sketch -->
    <title>icon</title>
    <desc>Created with Sketch.</desc>
    <defs>
        <rect id="path-1" x="0" y="0" width="96" height="96" rx="20"></rect>
        <path d="M106.5,19 L95.5,19 C93.5670034,19 92,20.5670034 92,22.5 C92,24.4329966 93.5670034,26 95.5,26 L106.5,26 C108.432997,26 110,24.4329966 110,22.5 C110,20.5670034 108.432997,19 106.5,19 Z" id="path-3"></path>
        <filter x="-5.6%" y="-14.3%" width="116.7%" height="157.1%" filterUnits="objectBoundingBox" id="filter-4">
            <feOffset dx="1" dy="2" in="SourceAlpha" result="shadowOffsetOuter1"></feOffset>
            <feColorMatrix values="0 0 0 0 1   0 0 0 0 1   0 0 0 0 1  0 0 0 1 0" type="matrix" in="shadowOffsetOuter1"></feColorMatrix>
        </filter>
        <path d="M14.5,45 L3.5,45 C1.56700338,45 -1.33226763e-15,46.5670034 0,48.5 C1.33226763e-15,50.4329966 1.56700338,52 3.5,52 L14.5,52 C16.4329966,52 18,50.4329966 18,48.5 C18,46.5670034 16.4329966,45 14.5,45 Z" id="path-5"></path>
        <filter x="-5.6%" y="-14.3%" width="116.7%" height="157.1%" filterUnits="objectBoundingBox" id="filter-6">
            <feOffset dx="1" dy="2" in="SourceAlpha" result="shadowOffsetOuter1"></feOffset>
            <feColorMatrix values="0 0 0 0 1   0 0 0 0 1   0 0 0 0 1  0 0 0 1 0" type="matrix" in="shadowOffsetOuter1"></feColorMatrix>
        </filter>
    </defs>
    <g id="1.0-Estagios-Empregos" stroke="none" stroke-width="1" fill="none" fill-rule="evenodd">
        <g id="D-1.0-Estagio-Emprego" transform="translate(-235.000000, -3264.000000)">
            <g id="Section-06" transform="translate(0.000000, 3152.000000)">
                <g id="icon" transform="translate(235.000000, 112.000000)">
                    <g id="Group-17" transform="translate(7.000000, 0.000000)">
                        <mask id="mask-2" fill="white">
                            <use xlink:href="#path-1"></use>
                        </mask>
                        <use id="Mask" fill="#7EEEAB" xlink:href="#path-1"></use>
                        <path d="M27.5,34 L10.5,34 C8.56700338,34 7,35.5670034 7,37.5 C7,39.4329966 8.56700338,41 10.5,41 L27.5,41 C29.4329966,41 31,39.4329966 31,37.5 C31,35.5670034 29.4329966,34 27.5,34 Z" id="Line-5" fill="#9AF1C3" fill-rule="nonzero" mask="url(#mask-2)"></path>
                        <path d="M25,16.8333333 L19.5,16.8333333 C17.5670034,16.8333333 16,18.4003367 16,20.3333333 C16,22.26633 17.5670034,23.8333333 19.5,23.8333333 L25,23.8333333 C26.9329966,23.8333333 28.5,22.26633 28.5,20.3333333 C28.5,18.4003367 26.9329966,16.8333333 25,16.8333333 Z" id="Line-5-Copy-2" fill="#9AF1C3" fill-rule="nonzero" mask="url(#mask-2)"></path>
                        <path d="M72,16.8333333 L59,16.8333333 C57.0670034,16.8333333 55.5,18.4003367 55.5,20.3333333 C55.5,22.26633 57.0670034,23.8333333 59,23.8333333 L72,23.8333333 C73.9329966,23.8333333 75.5,22.26633 75.5,20.3333333 C75.5,18.4003367 73.9329966,16.8333333 72,16.8333333 Z" id="Line-5-Copy-3" fill="#9AF1C3" fill-rule="nonzero" mask="url(#mask-2)"></path>
                        <path d="M44,5 L42,5 C40.0670034,5 38.5,6.56700338 38.5,8.5 C38.5,10.4329966 40.0670034,12 42,12 L44,12 C45.9329966,12 47.5,10.4329966 47.5,8.5 C47.5,6.56700338 45.9329966,5 44,5 Z" id="Line-5-Copy-4" fill="#9AF1C3" fill-rule="nonzero" mask="url(#mask-2)"></path>
                        <g id="Group-4" mask="url(#mask-2)">
                            <g transform="translate(13.000000, 14.000000)">
                                <rect id="Rectangle-3-Copy-3" fill="#00AD46" x="32" y="5" width="20" height="87"></rect>
                                <path d="M43,2 L43,5 L41,5 L41,2 L40,2 L40,0 L44,0 L44,2 L43,2 Z" id="Combined-Shape" fill="#00AD46"></path>
                                <path d="M63.8571429,14 L63.8571429,18 L62.1428571,18 L62.1428571,14 L61,14 L61,12 L65,12 L65,14 L63.8571429,14 Z" id="Combined-Shape" fill="#2ADD72"></path>
                                <path d="M21.8571429,11 L21.8571429,15 L20.1428571,15 L20.1428571,11 L19,11 L19,9 L23,9 L23,11 L21.8571429,11 Z" id="Combined-Shape" fill="#2ADD72"></path>
                                <path d="M44,42 L47,42 L47,45 L44,45 L44,42 Z M44,50 L47,50 L47,53 L44,53 L44,50 Z M37,26 L40,26 L40,29 L37,29 L37,26 Z M37,34 L40,34 L40,37 L37,37 L37,34 Z M44,10 L47,10 L47,13 L44,13 L44,10 Z" id="Combined-Shape-Copy-6" fill="#FFFFFF"></path>
                                <path d="M44,34 L47,34 L47,37 L44,37 L44,34 Z M37,18 L40,18 L40,21 L37,21 L37,18 Z M44,18 L47,18 L47,21 L44,21 L44,18 Z" id="Combined-Shape" fill="#7EEEAB"></path>
                                <path d="M37,42 L40,42 L40,45 L37,45 L37,42 Z M37,50 L40,50 L40,53 L37,53 L37,50 Z M44,26 L47,26 L47,29 L44,29 L44,26 Z M37,10 L40,10 L40,13 L37,13 L37,10 Z" id="Combined-Shape" fill="#2ADD72"></path>
                                <rect id="Rectangle-3-Copy-4" fill="#02D557" x="53" y="18" width="20" height="74"></rect>
                                <path d="M58,55 L61,55 L61,58 L58,58 L58,55 Z M58,63 L61,63 L61,66 L58,66 L58,63 Z M65,55 L68,55 L68,58 L65,58 L65,55 Z M65,63 L68,63 L68,66 L65,66 L65,63 Z M58,39 L61,39 L61,42 L58,42 L58,39 Z M58,47 L61,47 L61,50 L58,50 L58,47 Z M65,39 L68,39 L68,42 L65,42 L65,39 Z M65,47 L68,47 L68,50 L65,50 L65,47 Z M58,31 L61,31 L61,34 L58,34 L58,31 Z M65,23 L68,23 L68,26 L65,26 L65,23 Z" id="Combined-Shape-Copy-8" fill="#9AF1C3"></path>
                                <path d="M58,23 L61,23 L61,26 L58,26 L58,23 Z M65,31 L68,31 L68,34 L65,34 L65,31 Z" id="Combined-Shape" fill="#FFFFFF"></path>
                                <rect id="Rectangle-3-Copy-6" fill="#00AD46" x="11" y="15" width="20" height="77"></rect>
                                <path d="M16,52 L19,52 L19,55 L16,55 L16,52 Z M16,60 L19,60 L19,63 L16,63 L16,60 Z M23,52 L26,52 L26,55 L23,55 L23,52 Z M23,60 L26,60 L26,63 L23,63 L23,60 Z M16,36 L19,36 L19,39 L16,39 L16,36 Z M16,44 L19,44 L19,47 L16,47 L16,44 Z M16,20 L19,20 L19,23 L16,23 L16,20 Z M23,28 L26,28 L26,31 L23,31 L23,28 Z" id="Combined-Shape-Copy-7" fill="#9AF1C3"></path>
                                <path d="M23,36 L26,36 L26,39 L23,39 L23,36 Z M23,44 L26,44 L26,47 L23,47 L23,44 Z M16,28 L19,28 L19,31 L16,31 L16,28 Z M23,20 L26,20 L26,23 L23,23 L23,20 Z" id="Combined-Shape" fill="#FFFFFF"></path>
                                <rect id="Rectangle-3" fill="#2ADD72" x="42" y="39" width="20" height="53"></rect>
                                <rect id="Rectangle-3-Copy" fill="#50E58C" x="63" y="48" width="20" height="53"></rect>
                                <rect id="Rectangle-3-Copy-2" fill="#02D557" x="21" y="54" width="20" height="53"></rect>
                                <rect id="Rectangle-3-Copy-7" fill="#2ADD72" x="0" y="45" width="20" height="53"></rect>
                                <path d="M47,84 L50,84 L50,87 L47,87 L47,84 Z M54,76 L57,76 L57,79 L54,79 L54,76 Z M54,84 L57,84 L57,87 L54,87 L54,84 Z M47,60 L50,60 L50,63 L47,63 L47,60 Z M54,68 L57,68 L57,71 L54,71 L54,68 Z M47,44 L50,44 L50,47 L47,47 L47,44 Z M54,44 L57,44 L57,47 L54,47 L54,44 Z M54,52 L57,52 L57,55 L54,55 L54,52 Z" id="Combined-Shape-Copy-9" fill="#9AF1C3"></path>
                                <path d="M47,76 L50,76 L50,79 L47,79 L47,76 Z M47,68 L50,68 L50,71 L47,71 L47,68 Z M47,52 L50,52 L50,55 L47,55 L47,52 Z M54,60 L57,60 L57,63 L54,63 L54,60 Z" id="Combined-Shape" fill="#FFFFFF"></path>
                                <path d="M68,85 L71,85 L71,88 L68,88 L68,85 Z M68,93 L71,93 L71,96 L68,96 L68,93 Z M75,85 L78,85 L78,88 L75,88 L75,85 Z M75,93 L78,93 L78,96 L75,96 L75,93 Z M68,69 L71,69 L71,72 L68,72 L68,69 Z M68,77 L71,77 L71,80 L68,80 L68,77 Z M75,69 L78,69 L78,72 L75,72 L75,69 Z M75,77 L78,77 L78,80 L75,80 L75,77 Z M68,53 L71,53 L71,56 L68,56 L68,53 Z M68,61 L71,61 L71,64 L68,64 L68,61 Z M75,53 L78,53 L78,56 L75,56 L75,53 Z M75,61 L78,61 L78,64 L75,64 L75,61 Z" id="Combined-Shape-Copy-10" fill="#9AF1C3"></path>
                                <path d="M5,82 L8,82 L8,85 L5,85 L5,82 Z M5,90 L8,90 L8,93 L5,93 L5,90 Z M12,82 L15,82 L15,85 L12,85 L12,82 Z M12,90 L15,90 L15,93 L12,93 L12,90 Z M5,74 L8,74 L8,77 L5,77 L5,74 Z M12,66 L15,66 L15,69 L12,69 L12,66 Z M12,74 L15,74 L15,77 L12,77 L12,74 Z M5,50 L8,50 L8,53 L5,53 L5,50 Z M12,50 L15,50 L15,53 L12,53 L12,50 Z" id="Combined-Shape-Copy-12" fill="#9AF1C3"></path>
                                <path d="M5,66 L8,66 L8,69 L5,69 L5,66 Z M5,58 L8,58 L8,61 L5,61 L5,58 Z M12,58 L15,58 L15,61 L12,61 L12,58 Z" id="Combined-Shape" fill="#FFFFFF"></path>
                                <path d="M26,91 L29,91 L29,94 L26,94 L26,91 Z M26,99 L29,99 L29,102 L26,102 L26,99 Z M33,91 L36,91 L36,94 L33,94 L33,91 Z M33,99 L36,99 L36,102 L33,102 L33,99 Z M26,75 L29,75 L29,78 L26,78 L26,75 Z M26,83 L29,83 L29,86 L26,86 L26,83 Z M33,75 L36,75 L36,78 L33,78 L33,75 Z M33,83 L36,83 L36,86 L33,86 L33,83 Z M26,59 L29,59 L29,62 L26,62 L26,59 Z M26,67 L29,67 L29,70 L26,70 L26,67 Z M33,59 L36,59 L36,62 L33,62 L33,59 Z M33,67 L36,67 L36,70 L33,70 L33,67 Z" id="Combined-Shape-Copy-11" fill="#9AF1C3"></path>
                            </g>
                        </g>
                    </g>
                    <g id="Line-5-Copy" fill-rule="nonzero">
                        <use fill="black" fill-opacity="1" filter="url(#filter-4)" xlink:href="#path-3"></use>
                        <use fill="#7EEEAB" fill-rule="evenodd" xlink:href="#path-3"></use>
                    </g>
                    <g id="Line-5-Copy-5" fill-rule="nonzero">
                        <use fill="black" fill-opacity="1" filter="url(#filter-6)" xlink:href="#path-5"></use>
                        <use fill="#7EEEAB" fill-rule="evenodd" xlink:href="#path-5"></use>
                    </g>
                </g>
            </g>
        </g>
    </g>
</svg>