<?xml version="1.0" encoding="UTF-8" standalone="no"?>
<svg width="48px" height="48px" viewBox="0 0 48 48" version="1.1" xmlns="http://www.w3.org/2000/svg" xmlns:xlink="http://www.w3.org/1999/xlink">
    <!-- Generator: Sketch 48.1 (47250) - http://www.bohemiancoding.com/sketch -->
    <title>icon-ring</title>
    <desc>Created with Sketch.</desc>
    <defs>
        <circle id="path-1" cx="24" cy="24" r="24"></circle>
    </defs>
    <g id="2.2-Profissinal-liberal" stroke="none" stroke-width="1" fill="none" fill-rule="evenodd" transform="translate(-600.000000, -3514.000000)">
        <g id="Contact" transform="translate(0.000000, 3322.000000)">
            <g id="Group-6" transform="translate(600.000000, 192.000000)">
                <g id="icon-ring">
                    <mask id="mask-2" fill="white">
                        <use xlink:href="#path-1"></use>
                    </mask>
                    <use id="Mask" fill="#7EEEAB" xlink:href="#path-1"></use>
                    <path d="M14.783963,13.0218622 C14.617996,12.988579 14.4188357,12.988579 14.2860621,13.0551453 C12.4936185,13.7540909 11.3650429,16.3168914 11.0994957,18.080897 C10.2696608,23.8055943 14.783963,28.7647798 18.9331379,32.026526 C22.6176052,34.9221577 29.6877992,39.6816445 33.8701675,35.0885734 C34.4012619,34.5227603 35.0319365,33.6906822 34.9987431,32.8586041 C34.8991629,31.4607128 33.6046203,30.4622191 32.6088183,29.6967073 C31.8453701,29.1308942 30.252087,27.5665873 29.256285,27.5998705 C28.3600632,27.6331536 27.7957755,28.5650811 27.2314877,29.1308942 L26.2356857,30.1293879 C26.0697187,30.2958035 23.9453412,28.8979123 23.7129874,28.7314967 C22.849959,28.1656836 22.020124,27.5333042 21.2898693,26.8343586 C20.5596145,26.135413 19.8957465,25.3699012 19.3314587,24.5711062 C19.1654917,24.3381243 17.8045624,22.3078538 17.937336,22.1414381 C17.937336,22.1414381 19.0991049,20.8766794 19.4310389,20.3774326 C20.1281003,19.3123726 20.6591947,18.4802945 19.8625531,17.2155358 C19.5638125,16.749572 19.1986851,16.3834577 18.8003643,15.9840602 C18.1033029,15.3183977 17.4062416,14.6194521 16.6096,14.053639 C16.1780858,13.7208078 15.447831,13.1217115 14.783963,13.0218622 Z" id="Ring" fill="#00AD46" fill-rule="nonzero" mask="url(#mask-2)"></path>
                    <path d="M36,24 C36,17.372583 30.627417,12 24,12 C23.1715729,12 22.5,12.6715729 22.5,13.5 C22.5,14.3284271 23.1715729,15 24,15 C28.9705627,15 33,19.0294373 33,24 C33,24.8284271 33.6715729,25.5 34.5,25.5 C35.3284271,25.5 36,24.8284271 36,24 Z" id="Combined-Shape" fill="#FFFFFF" mask="url(#mask-2)"></path>
                    <path d="M31.5,24 C31.5,19.8578644 28.1421356,16.5 24,16.5 C23.1715729,16.5 22.5,17.1715729 22.5,18 C22.5,18.8284271 23.1715729,19.5 24,19.5 C26.4852814,19.5 28.5,21.5147186 28.5,24 C28.5,24.8284271 29.1715729,25.5 30,25.5 C30.8284271,25.5 31.5,24.8284271 31.5,24 Z" id="Oval-7-Copy" fill="#FFFFFF" opacity="0.600000024" mask="url(#mask-2)"></path>
                </g>
            </g>
        </g>
    </g>
</svg>