<?xml version="1.0" encoding="UTF-8" standalone="no"?>
<svg width="80px" height="80px" viewBox="0 0 80 80" version="1.1" xmlns="http://www.w3.org/2000/svg" xmlns:xlink="http://www.w3.org/1999/xlink">
    <!-- Generator: Sketch 48 (47235) - http://www.bohemiancoding.com/sketch -->
    <title>icon-portuguese</title>
    <desc>Created with Sketch.</desc>
    <defs>
        <circle id="path-1" cx="40" cy="40" r="40"></circle>
        <linearGradient x1="50%" y1="18.4983221%" x2="50%" y2="171.613135%" id="linearGradient-3">
            <stop stop-color="#E9E9E9" offset="0%"></stop>
            <stop stop-color="#FFFFFF" offset="100%"></stop>
        </linearGradient>
    </defs>
    <g id="D-1.1.1-Estagio-Internacional-candidato" stroke="none" stroke-width="1" fill="none" fill-rule="evenodd" transform="translate(-240.000000, -3088.000000)">
        <g id="Features" transform="translate(240.000000, 1897.000000)">
            <g id="Itens" transform="translate(0.000000, 502.000000)">
                <g id="07" transform="translate(0.000000, 689.000000)">
                    <g id="icon-portuguese">
                        <mask id="mask-2" fill="white">
                            <use xlink:href="#path-1"></use>
                        </mask>
                        <use id="Oval" fill="#7EEEAB" xlink:href="#path-1"></use>
                        <g id="Group-18" mask="url(#mask-2)">
                            <g transform="translate(14.000000, 53.000000)">
                                <path d="M44,12 L44,21.0399113 C44,30.9589944 36.1649831,39 26.5,39 C16.8350169,39 9,30.9589944 9,21.0399113 L9,12" id="Rectangle-4" stroke="none" fill="url(#linearGradient-3)" fill-rule="evenodd"></path>
                                <path d="M8,11.1760718 L8,6 L45,6 L45,15.0589731 C38.8333333,16.352991 32.6666667,17 26.5,17 C20.3333333,17 14.1666667,16.352991 8,15.0589731 Z" id="Combined-Shape" stroke="none" fill="#00AD46" fill-rule="evenodd"></path>
                                <rect id="Rectangle-25" stroke="none" fill="#02D557" fill-rule="evenodd" x="1" y="1" width="51" height="5"></rect>
                                <polyline id="Line-9" stroke="#FFFFFF" stroke-width="2" fill="none" points="27 0 0 0 0 24.5454545"></polyline>
                            </g>
                        </g>
                        <path d="M59,46 L56,51 L53,46 L37,46 C35.3431458,46 34,44.6568542 34,43 L34,19 C34,17.3431458 35.3431458,16 37,16 L76,16 C77.6568542,16 79,17.3431458 79,19 L79,43 C79,44.6568542 77.6568542,46 76,46 L59,46 Z" id="Combined-Shape" fill="#00AD46" mask="url(#mask-2)"></path>
                        <path d="M25,35 L22,40 L19,35 L3,35 C1.34314575,35 2.02906125e-16,33.6568542 0,32 L0,8 C-2.02906125e-16,6.34314575 1.34314575,5 3,5 L42,5 C43.6568542,5 45,6.34314575 45,8 L45,32 C45,33.6568542 43.6568542,35 42,35 L25,35 Z" id="Combined-Shape-Copy-2" fill="#02D557" mask="url(#mask-2)"></path>
                        <path d="M57.0806846,31.2444988 C57.0806846,34.5696822 55.9193154,36 53.0464548,36 C50.2224939,36 49,34.5085575 49,31.2444988 C49,27.9804401 50.1858191,26.5134474 53.0464548,26.5134474 C55.9193154,26.5134474 57.0806846,27.9804401 57.0806846,31.2444988 Z M54.9290954,31.2444988 C54.9290954,28.9217604 54.4523227,28.3594132 53.0464548,28.3594132 C51.6528117,28.3594132 51.1638142,28.9217604 51.1638142,31.2444988 C51.1638142,33.5672372 51.6650367,34.1540342 53.0586797,34.1540342 C54.4400978,34.1540342 54.9290954,33.5550122 54.9290954,31.2444988 Z M60.5403423,35.8288509 L60.5403423,28.3838631 L58.596577,28.4694377 L58.596577,35.8288509 L60.5403423,35.8288509 Z M60.6503667,26.8190709 C60.6503667,26.2811736 60.3202934,26 59.5745721,26 C58.8410758,26 58.4865526,26.2933985 58.4865526,26.8190709 C58.4865526,27.4180929 58.8410758,27.6259169 59.5745721,27.6259169 C60.3202934,27.6259169 60.6503667,27.3569682 60.6503667,26.8190709 Z M64.1100244,33.1638142 L64.391198,26.6601467 L62.3374083,26.6601467 L62.6308068,33.1638142 L64.1100244,33.1638142 Z M64.4645477,35.0220049 C64.4645477,34.4107579 64.1589242,34.0562347 63.400978,34.0562347 C62.6674817,34.0562347 62.3374083,34.4107579 62.3374083,35.0220049 C62.3374083,35.7066015 62.6674817,35.9755501 63.400978,35.9755501 C64.1589242,35.9755501 64.4645477,35.608802 64.4645477,35.0220049 Z" id="Oi!" fill="#9AF1C3" mask="url(#mask-2)"></path>
                        <path d="M14.375,24.825 L14.375,20 C14.375,18.175 13.4375,17.1 11.8375,17.1 C11.2,17.1 10.5125,17.275 9.95,17.75 L9.9125,17.725 L9.9375,16.725 L9.9375,15 L8,15.1 L8,24.825 L9.9375,24.825 L9.9375,19.4 C10.175,19.075 10.6625,18.825 11.225,18.825 C12.05,18.825 12.4375,19.225 12.4375,20 L12.4375,24.825 L14.375,24.825 Z M19.2875,24.9625 C16.675,24.9625 15.5125,23.5875 15.5125,20.9375 C15.5125,18.525 16.575,17.1125 18.85,17.1125 C20.7875,17.1125 21.975,18.2375 21.975,20.6375 C21.975,20.925 21.9625,21.2875 21.925,21.55 L17.5125,21.55 C17.6125,22.8125 18.225,23.2875 19.525,23.2875 C20.2375,23.2875 20.9,23.1625 21.55,22.9125 L21.7625,24.475 C21.125,24.7625 20.25,24.9625 19.2875,24.9625 Z M17.475,20.2625 L20.2,20.2625 C20.175,19.15 19.675,18.725 18.8625,18.725 C17.925,18.725 17.5625,19.1625 17.475,20.2625 Z M25.2875,24.825 L25.2875,15 L23.325,15.0875 L23.325,24.825 L25.2875,24.825 Z M29.1,24.825 L29.1,15 L27.1375,15.0875 L27.1375,24.825 L29.1,24.825 Z M37.4,21.0625 C37.4,23.85 36.35,25 33.9375,25 C31.5375,25 30.4625,23.85 30.4625,21.0625 C30.4625,18.2875 31.5375,17.1125 33.9375,17.1125 C36.35,17.1125 37.4,18.2875 37.4,21.0625 Z M32.475,21.0625 C32.475,22.925 32.875,23.4125 33.9375,23.4125 C35,23.4125 35.3875,22.9125 35.3875,21.0625 C35.3875,19.2125 35,18.7125 33.9375,18.7125 C32.8625,18.7125 32.475,19.2125 32.475,21.0625 Z" id="hello" fill="#9AF1C3" mask="url(#mask-2)"></path>
                    </g>
                </g>
            </g>
        </g>
    </g>
</svg>