<?xml version="1.0" encoding="UTF-8" standalone="no"?>
<svg width="80px" height="80px" viewBox="0 0 80 80" version="1.1" xmlns="http://www.w3.org/2000/svg" xmlns:xlink="http://www.w3.org/1999/xlink">
    <!-- Generator: Sketch 48.1 (47250) - http://www.bohemiancoding.com/sketch -->
    <title>icon-right-field</title>
    <desc>Created with Sketch.</desc>
    <defs>
        <circle id="path-1" cx="40" cy="40" r="40"></circle>
        <linearGradient x1="50%" y1="2.77555756e-15%" x2="50%" y2="73.1146365%" id="linearGradient-3">
            <stop stop-color="#E9E9E9" offset="0%"></stop>
            <stop stop-color="#FFFFFF" offset="100%"></stop>
        </linearGradient>
        <linearGradient x1="86.5573182%" y1="36.5573182%" x2="13.4426818%" y2="36.5573182%" id="linearGradient-4">
            <stop stop-color="#E9E9E9" offset="0%"></stop>
            <stop stop-color="#FFFFFF" offset="100%"></stop>
        </linearGradient>
    </defs>
    <g id="2.1-Plataforma" stroke="none" stroke-width="1" fill="none" fill-rule="evenodd" transform="translate(-240.000000, -1725.000000)">
        <g id="Section-02-Copy-6" transform="translate(240.000000, 1725.000000)">
            <g id="icon-right-field">
                <mask id="mask-2" fill="white">
                    <use xlink:href="#path-1"></use>
                </mask>
                <use id="Oval-32-Copy" fill="#7EEEAB" xlink:href="#path-1"></use>
                <g id="Group-9" mask="url(#mask-2)">
                    <g transform="translate(36.000000, 19.000000)">
                        <path d="M11,36 L32,36 C38.0751322,36 43,40.9248678 43,47 L43,69 L0,69 L0,47 C-7.43989126e-16,40.9248678 4.92486775,36 11,36 Z" id="Rectangle" fill="#02D557"></path>
                        <rect id="Rectangle-8" fill="#2ADD72" x="7" y="15" width="30" height="19"></rect>
                        <polyline id="Combined-Shape" fill="url(#linearGradient-3)" points="17 33 17 36.625 17.6428571 37.25 21.5 41 25.3571429 37.25 26 36.625 26 33"></polyline>
                        <path d="M36,12 L36,19.3658537 C36,27.4480695 29.7319865,34 22,34 C14.2680135,34 8,27.4480695 8,19.3658537 L8,12" id="Rectangle-4" fill="#FFFFFF"></path>
                        <path d="M7.04107378,11 C7.54922468,4.84046948 12.7093362,1.15558935e-15 19,0 L25,0 C31.2906638,-1.15558935e-15 36.4507753,4.84046948 36.9589262,11 L37,11 L37,17 C34.790861,17 33,15.209139 33,13 L33,12.6933333 C29.3333333,13.2311111 25.6666667,13.5 22,13.5 C18.3333333,13.5 14.6666667,13.2311111 11,12.6933333 L11,13 C11,15.209139 9.209139,17 7,17 L7,11 L7.04107378,11 Z" id="Combined-Shape" fill="#2ADD72"></path>
                    </g>
                </g>
                <g id="Group-3" mask="url(#mask-2)">
                    <g transform="translate(0.000000, 19.000000)">
                        <path d="M11,36 L32,36 C38.0751322,36 43,40.9248678 43,47 L43,69 L0,69 L0,47 C-7.43989126e-16,40.9248678 4.92486775,36 11,36 Z" id="Rectangle" fill="#2ADD72"></path>
                        <polyline id="Combined-Shape" fill="url(#linearGradient-3)" points="17 33 17 36.625 17.6428571 37.25 21.5 41 25.3571429 37.25 26 36.625 26 33"></polyline>
                        <path d="M8,17 L9,17 L9,23 L8,23 C6.34314575,23 5,21.6568542 5,20 L5,20 C5,18.3431458 6.34314575,17 8,17 Z" id="Rectangle-5" fill="url(#linearGradient-4)"></path>
                        <path d="M38,17 L39,17 L39,23 L38,23 C36.3431458,23 35,21.6568542 35,20 L35,20 C35,18.3431458 36.3431458,17 38,17 Z" id="Rectangle-5-Copy" fill="url(#linearGradient-4)" transform="translate(37.000000, 20.000000) scale(-1, 1) translate(-37.000000, -20.000000) "></path>
                        <path d="M36,12 L36,19.3658537 C36,27.4480695 29.7319865,34 22,34 C14.2680135,34 8,27.4480695 8,19.3658537 L8,12" id="Rectangle-4" fill="#FFFFFF"></path>
                        <path d="M7.04107378,11 C7.54922468,4.84046948 12.7093362,1.15558935e-15 19,0 L25,0 C31.2906638,-1.15558935e-15 36.4507753,4.84046948 36.9589262,11 L37,11 L37,15 C37,16.1045695 36.1045695,17 35,17 C33.8954305,17 33,16.1045695 33,15 L33,12.6933333 C29.3333333,13.2311111 25.6666667,13.5 22,13.5 C18.3333333,13.5 14.6666667,13.2311111 11,12.6933333 L11,15 C11,16.1045695 10.1045695,17 9,17 C7.8954305,17 7,16.1045695 7,15 L7,11 L7.04107378,11 Z" id="Combined-Shape" fill="#2ADD72"></path>
                    </g>
                </g>
            </g>
        </g>
    </g>
</svg>