<?xml version="1.0" encoding="UTF-8"?>
<svg width="30px" height="28px" viewBox="0 0 30 28" version="1.1" xmlns="http://www.w3.org/2000/svg" xmlns:xlink="http://www.w3.org/1999/xlink">
    <!-- Generator: Sketch 48.2 (47327) - http://www.bohemiancoding.com/sketch -->
    <title>Combined Shape</title>
    <desc>Created with Sketch.</desc>
    <defs></defs>
    <g id="@Icons/Thumb-up-Active" stroke="none" stroke-width="1" fill="none" fill-rule="evenodd" transform="translate(0.000000, -1.000000)">
        <g id="Group" transform="translate(0.000000, 1.000000)" fill="#2ADD72">
            <path d="M2.79310345,11 L6.20689655,11 C7.74948499,11 9,12.223222 9,13.7321429 L9,25.2678571 C9,26.776778 7.74948499,28 6.20689655,28 L2.79310345,28 C1.25051501,28 0,26.776778 0,25.2678571 L0,13.7321429 C0,12.223222 1.25051501,11 2.79310345,11 Z M11,24.1204819 L11.0180463,13.4574294 C11.1462413,12.3853622 11.5186069,11.5019621 12.1351429,10.8072289 C12.783796,10.0763052 13.81083,8.35341365 15.2162451,5.63855422 C15.5405716,4.48995984 15.594626,3.28915663 15.3784083,2.03614458 C15.0540818,0.156626506 16.1732654,-3.56127443e-14 17.0000411,0 C17.8268167,3.56127443e-14 20.567633,1.09638554 20.567633,5.48192771 C20.567633,6.97758915 20.3108822,8.14852588 20.3684863,9 L26.7567346,9 C28.5479406,9 30,10.1735658 30,11.9036145 C30,12.1281356 29.9750084,12.3520061 29.925456,12.5713667 L27.6714926,22.549311 C27.2164416,24.5637507 25.3699977,26 23.2352825,26 L12.9459593,26 C11.8712356,26 11,25.1585111 11,24.1204819 Z" id="Combined-Shape"></path>
        </g>
    </g>
</svg>