<?xml version="1.0" encoding="UTF-8" standalone="no"?>
<svg width="80px" height="80px" viewBox="0 0 80 80" version="1.1" xmlns="http://www.w3.org/2000/svg" xmlns:xlink="http://www.w3.org/1999/xlink">
    <!-- Generator: Sketch 48 (47235) - http://www.bohemiancoding.com/sketch -->
    <title>icon-visa-aid</title>
    <desc>Created with Sketch.</desc>
    <defs>
        <circle id="path-1" cx="40" cy="40" r="40"></circle>
        <linearGradient x1="86.5573182%" y1="36.5573182%" x2="13.4426818%" y2="36.5573182%" id="linearGradient-3">
            <stop stop-color="#E9E9E9" offset="0%"></stop>
            <stop stop-color="#FFFFFF" offset="100%"></stop>
        </linearGradient>
        <linearGradient x1="86.5573182%" y1="36.5573182%" x2="13.4426818%" y2="36.5573182%" id="linearGradient-4">
            <stop stop-color="#E9E9E9" offset="0%"></stop>
            <stop stop-color="#D8D8D8" offset="100%"></stop>
        </linearGradient>
    </defs>
    <g id="D-1.1.1-Estagio-Internacional-candidato" stroke="none" stroke-width="1" fill="none" fill-rule="evenodd" transform="translate(-600.000000, -2399.000000)">
        <g id="Features" transform="translate(240.000000, 1897.000000)">
            <g id="Itens" transform="translate(0.000000, 502.000000)">
                <g id="02" transform="translate(360.000000, 0.000000)">
                    <g id="icon-visa-aid">
                        <mask id="mask-2" fill="white">
                            <use xlink:href="#path-1"></use>
                        </mask>
                        <use id="Mask" fill="#7EEEAB" xlink:href="#path-1"></use>
                        <g id="Group-13" mask="url(#mask-2)">
                            <g transform="translate(-2.000000, 25.000000)">
                                <polygon id="Rectangle-2-Copy-5" fill="url(#linearGradient-3)" transform="translate(23.053966, 10.484008) scale(1, -1) translate(-23.053966, -10.484008) " points="19 9 27.1079312 9 27.1079312 11.9680153 25.5 11.9680153"></polygon>
                                <rect id="Rectangle-2" fill="#02D557" x="0" y="9" width="12" height="20"></rect>
                                <rect id="Rectangle-2" fill="#00AD46" x="0" y="18" width="12" height="10"></rect>
                                <rect id="Rectangle-2" fill="#00AD46" x="27" y="0" width="41" height="26" rx="2"></rect>
                                <rect id="Rectangle-2" fill="#2ADD72" x="53" y="4" width="10" height="10"></rect>
                                <path d="M34,19.0354444 C32.3038529,19.2780593 31,20.736764 31,22.5 C31,24.263236 32.3038529,25.7219407 34,25.9645556 L34,26 L12,26 L12,11 L34,11 L34,19.0354444 Z" id="Combined-Shape" fill="#FFFFFF"></path>
                                <rect id="Rectangle-2-Copy-2" fill="#FFFFFF" x="21" y="11" width="25" height="8" rx="4"></rect>
                                <path d="M42.5,12 L41,12 C40.4477153,12 40,12.4477153 40,13 L40,17 C40,17.5522847 40.4477153,18 41,18 L42.5,18 C43.8807119,18 45,16.8807119 45,15.5 L45,14.5 C45,13.1192881 43.8807119,12 42.5,12 Z" id="Rectangle-2-Copy-4" fill="url(#linearGradient-4)"></path>
                                <path d="M15,26 L44,26 L44,26 C41.0483297,29.7862806 36.5156672,32 31.7148049,32 L27.2851951,32 C22.4843328,32 17.9516703,29.7862806 15,26 Z" id="Rectangle-2-Copy-3" fill="#FFFFFF"></path>
                            </g>
                        </g>
                    </g>
                </g>
            </g>
        </g>
    </g>
</svg>