<?xml version="1.0" encoding="UTF-8"?>
<svg width="80px" height="80px" viewBox="0 0 80 80" version="1.1" xmlns="http://www.w3.org/2000/svg" xmlns:xlink="http://www.w3.org/1999/xlink">
    <!-- Generator: Sketch 48.2 (47327) - http://www.bohemiancoding.com/sketch -->
    <title>Group 19</title>
    <desc>Created with Sketch.</desc>
    <defs>
        <rect id="path-1" x="0" y="0" width="80" height="80" rx="40"></rect>
    </defs>
    <g id="8.0-Sobre-ABRE" stroke="none" stroke-width="1" fill="none" fill-rule="evenodd" transform="translate(-960.000000, -1320.000000)">
        <g id="Section-02" transform="translate(239.000000, 1214.000000)">
            <g id="Title-of-this-column-+-Nunc-quis-massa-vita-Copy-2-+-Rectangle-15-+-Line-+-Line-3-Copy-47" transform="translate(720.000000, 106.000000)">
                <g id="Group-19" transform="translate(1.000000, 0.000000)">
                    <mask id="mask-2" fill="white">
                        <use xlink:href="#path-1"></use>
                    </mask>
                    <use id="Rectangle-3" fill="#7EEEAB" xlink:href="#path-1"></use>
                    <path d="M45.5839563,61 C44.8123997,62.7659048 43.050319,64 41,64 C38.949681,64 37.1876003,62.7659048 36.4160437,61 L12,61 C10.8954305,61 10,60.1045695 10,59 L10,26 C10,24.8954305 10.8954305,24 12,24 L70,24 C71.1045695,24 72,24.8954305 72,26 L72,59 C72,60.1045695 71.1045695,61 70,61 L45.5839563,61 Z" id="Combined-Shape" fill="#2ADD72" mask="url(#mask-2)"></path>
                    <path d="M14,20 L36,20 L36,58 L14,58 L14,20 Z M36,20 C38.7614237,20 41,21.1835284 41,23.8222222 L41,63 L36,63 L36,20 Z M36,58 L36,63 L41,63 L41,61.5714286 C41,59.598983 38.7614237,58 36,58 Z" id="Combined-Shape" fill="#9AF1C3" mask="url(#mask-2)"></path>
                    <path d="M41,20 L63,20 L63,58 L41,58 L41,20 Z M63,20 C65.7614237,20 68,21.1835284 68,23.8222222 L68,63 L63,63 L63,20 Z M63,58 L63,63 L68,63 L68,61.5714286 C68,59.598983 65.7614237,58 63,58 Z" id="Combined-Shape-Copy" fill="#50E58C" mask="url(#mask-2)" transform="translate(54.500000, 41.500000) scale(-1, 1) translate(-54.500000, -41.500000) "></path>
                    <path d="M18,25 L22,25 C22.5522847,25 23,25.4477153 23,26 C23,26.5522847 22.5522847,27 22,27 L18,27 C17.4477153,27 17,26.5522847 17,26 C17,25.4477153 17.4477153,25 18,25 Z M25,25 L29,25 C29.5522847,25 30,25.4477153 30,26 C30,26.5522847 29.5522847,27 29,27 L25,27 C24.4477153,27 24,26.5522847 24,26 C24,25.4477153 24.4477153,25 25,25 Z M18,28 L34,28 C34.5522847,28 35,28.4477153 35,29 C35,29.5522847 34.5522847,30 34,30 L18,30 C17.4477153,30 17,29.5522847 17,29 C17,28.4477153 17.4477153,28 18,28 Z M18,31 L34,31 C34.5522847,31 35,31.4477153 35,32 C35,32.5522847 34.5522847,33 34,33 L18,33 C17.4477153,33 17,32.5522847 17,32 C17,31.4477153 17.4477153,31 18,31 Z M18,34 L34,34 C34.5522847,34 35,34.4477153 35,35 C35,35.5522847 34.5522847,36 34,36 L18,36 C17.4477153,36 17,35.5522847 17,35 C17,34.4477153 17.4477153,34 18,34 Z M18,37 L26,37 C26.5522847,37 27,37.4477153 27,38 C27,38.5522847 26.5522847,39 26,39 L18,39 C17.4477153,39 17,38.5522847 17,38 C17,37.4477153 17.4477153,37 18,37 Z" id="Combined-Shape" fill="#FFFFFF" mask="url(#mask-2)"></path>
                </g>
            </g>
        </g>
    </g>
</svg>