<?xml version="1.0" encoding="UTF-8" standalone="no"?>
<svg width="80px" height="80px" viewBox="0 0 80 80" version="1.1" xmlns="http://www.w3.org/2000/svg" xmlns:xlink="http://www.w3.org/1999/xlink">
    <!-- Generator: Sketch 48 (47235) - http://www.bohemiancoding.com/sketch -->
    <title>icon-housing</title>
    <desc>Created with Sketch.</desc>
    <defs>
        <circle id="path-1" cx="40" cy="40" r="40"></circle>
    </defs>
    <g id="D-1.1.1-Estagio-Internacional-candidato" stroke="none" stroke-width="1" fill="none" fill-rule="evenodd" transform="translate(-600.000000, -2743.000000)">
        <g id="Features" transform="translate(240.000000, 1897.000000)">
            <g id="Itens" transform="translate(0.000000, 502.000000)">
                <g id="05" transform="translate(360.000000, 344.000000)">
                    <g id="icon-housing">
                        <mask id="mask-2" fill="white">
                            <use xlink:href="#path-1"></use>
                        </mask>
                        <use id="Oval" fill="#7EEEAB" xlink:href="#path-1"></use>
                        <rect id="Rectangle-18" fill="#00AD46" mask="url(#mask-2)" x="1" y="68" width="75" height="18"></rect>
                        <path d="M26,51 L26,68 L9,68 L9,68 C9,58.6111593 16.6111593,51 26,51 Z" id="Rectangle-16" fill="#02D557" mask="url(#mask-2)"></path>
                        <path d="M9.5,55 L9.5,55 C14.1944204,55 18,58.8055796 18,63.5 L18,68 L1,68 L1,63.5 C1,58.8055796 4.80557963,55 9.5,55 Z" id="Rectangle-16" fill="#02D557" mask="url(#mask-2)"></path>
                        <rect id="Rectangle-14-Copy-2" fill="#2ADD72" mask="url(#mask-2)" x="43" y="37" width="47" height="31"></rect>
                        <rect id="Rectangle-14" fill="#00AD46" mask="url(#mask-2)" x="42" y="20" width="47" height="17"></rect>
                        <rect id="Rectangle-14-Copy" fill="#7EEEAB" mask="url(#mask-2)" x="59" y="46" width="10" height="13"></rect>
                        <rect id="Rectangle-14-Copy" fill="#50E58C" mask="url(#mask-2)" x="58" y="57" width="12" height="3"></rect>
                        <rect id="Rectangle-14-Copy" fill="#50E58C" mask="url(#mask-2)" x="74" y="57" width="12" height="3"></rect>
                        <rect id="Rectangle-14-Copy" fill="#7EEEAB" mask="url(#mask-2)" x="75" y="46" width="10" height="13"></rect>
                        <polygon id="Combined-Shape" fill="#50E58C" mask="url(#mask-2)" points="22 68 53 68 53 35.5 37.4203102 20 22 35.4203102"></polygon>
                        <polygon id="Rectangle-13" fill="#02D557" mask="url(#mask-2)" points="22 14 29 14 29 25.3684211 22 32"></polygon>
                        <path d="M58.0060967,42.2530483 L37.7530483,22 L17.5,42.2530483 L14,38.7530483 L37.7530483,15 L61.5060967,38.7530483 L58.0060967,42.2530483 Z" id="Combined-Shape" fill="#02D557" mask="url(#mask-2)"></path>
                        <rect id="Rectangle-11" fill="#9AF1C3" mask="url(#mask-2)" x="32" y="48" width="11" height="18"></rect>
                        <rect id="Rectangle-11" fill="#FFFFFF" mask="url(#mask-2)" x="40" y="56" width="2" height="2" rx="1"></rect>
                        <rect id="Rectangle-11-Copy" fill="#9AF1C3" mask="url(#mask-2)" x="33" y="32" width="9" height="9" rx="4.5"></rect>
                        <rect id="Rectangle-11" fill="#02D557" mask="url(#mask-2)" x="30" y="66" width="15" height="4"></rect>
                    </g>
                </g>
            </g>
        </g>
    </g>
</svg>