<?xml version="1.0" encoding="UTF-8" standalone="no"?>
<svg width="80px" height="80px" viewBox="0 0 80 80" version="1.1" xmlns="http://www.w3.org/2000/svg" xmlns:xlink="http://www.w3.org/1999/xlink">
    <!-- Generator: Sketch 48.1 (47250) - http://www.bohemiancoding.com/sketch -->
    <title>icon-emergency</title>
    <desc>Created with Sketch.</desc>
    <defs>
        <circle id="path-1" cx="40" cy="40" r="40"></circle>
        <circle id="path-3" cx="56" cy="52" r="18"></circle>
    </defs>
    <g id="2.1-Plataforma" stroke="none" stroke-width="1" fill="none" fill-rule="evenodd" transform="translate(-600.000000, -1148.000000)">
        <g id="Section-02-Copy-4" transform="translate(600.000000, 1148.000000)">
            <g id="icon-emergency">
                <mask id="mask-2" fill="white">
                    <use xlink:href="#path-1"></use>
                </mask>
                <use id="Oval" fill="#7EEEAB" xlink:href="#path-1"></use>
                <g id="Group-17" mask="url(#mask-2)">
                    <g transform="translate(15.000000, 15.000000)">
                        <path d="M3,9 L47,9 C48.6568542,9 50,10.3431458 50,12 L50,42 C50,45.3137085 47.3137085,48 44,48 L6,48 C2.6862915,48 4.05812251e-16,45.3137085 0,42 L0,12 C-2.02906125e-16,10.3431458 1.34314575,9 3,9 Z" id="Rectangle-7" fill="#02D557"></path>
                        <path d="M5,17 C3.8954305,17 3,16.1045695 3,15 C3,13.8954305 3.8954305,13 5,13 C6.1045695,13 7,13.8954305 7,15 C7,16.1045695 6.1045695,17 5,17 Z M13,17 C11.8954305,17 11,16.1045695 11,15 C11,13.8954305 11.8954305,13 13,13 C14.1045695,13 15,13.8954305 15,15 C15,16.1045695 14.1045695,17 13,17 Z M21,17 C19.8954305,17 19,16.1045695 19,15 C19,13.8954305 19.8954305,13 21,13 C22.1045695,13 23,13.8954305 23,15 C23,16.1045695 22.1045695,17 21,17 Z M29,17 C27.8954305,17 27,16.1045695 27,15 C27,13.8954305 27.8954305,13 29,13 C30.1045695,13 31,13.8954305 31,15 C31,16.1045695 30.1045695,17 29,17 Z M37,17 C35.8954305,17 35,16.1045695 35,15 C35,13.8954305 35.8954305,13 37,13 C38.1045695,13 39,13.8954305 39,15 C39,16.1045695 38.1045695,17 37,17 Z M45,17 C43.8954305,17 43,16.1045695 43,15 C43,13.8954305 43.8954305,13 45,13 C46.1045695,13 47,13.8954305 47,15 C47,16.1045695 46.1045695,17 45,17 Z M5,31 C3.8954305,31 3,30.1045695 3,29 C3,27.8954305 3.8954305,27 5,27 C6.1045695,27 7,27.8954305 7,29 C7,30.1045695 6.1045695,31 5,31 Z M13,31 C11.8954305,31 11,30.1045695 11,29 C11,27.8954305 11.8954305,27 13,27 C14.1045695,27 15,27.8954305 15,29 C15,30.1045695 14.1045695,31 13,31 Z M21,31 C19.8954305,31 19,30.1045695 19,29 C19,27.8954305 19.8954305,27 21,27 C22.1045695,27 23,27.8954305 23,29 C23,30.1045695 22.1045695,31 21,31 Z M29,31 C27.8954305,31 27,30.1045695 27,29 C27,27.8954305 27.8954305,27 29,27 C30.1045695,27 31,27.8954305 31,29 C31,30.1045695 30.1045695,31 29,31 Z M37,31 C35.8954305,31 35,30.1045695 35,29 C35,27.8954305 35.8954305,27 37,27 C38.1045695,27 39,27.8954305 39,29 C39,30.1045695 38.1045695,31 37,31 Z M45,31 C43.8954305,31 43,30.1045695 43,29 C43,27.8954305 43.8954305,27 45,27 C46.1045695,27 47,27.8954305 47,29 C47,30.1045695 46.1045695,31 45,31 Z M9,24 C7.8954305,24 7,23.1045695 7,22 C7,20.8954305 7.8954305,20 9,20 C10.1045695,20 11,20.8954305 11,22 C11,23.1045695 10.1045695,24 9,24 Z M17,24 C15.8954305,24 15,23.1045695 15,22 C15,20.8954305 15.8954305,20 17,20 C18.1045695,20 19,20.8954305 19,22 C19,23.1045695 18.1045695,24 17,24 Z M25,24 C23.8954305,24 23,23.1045695 23,22 C23,20.8954305 23.8954305,20 25,20 C26.1045695,20 27,20.8954305 27,22 C27,23.1045695 26.1045695,24 25,24 Z M33,24 C31.8954305,24 31,23.1045695 31,22 C31,20.8954305 31.8954305,20 33,20 C34.1045695,20 35,20.8954305 35,22 C35,23.1045695 34.1045695,24 33,24 Z M41,24 C39.8954305,24 39,23.1045695 39,22 C39,20.8954305 39.8954305,20 41,20 C42.1045695,20 43,20.8954305 43,22 C43,23.1045695 42.1045695,24 41,24 Z M9,38 C7.8954305,38 7,37.1045695 7,36 C7,34.8954305 7.8954305,34 9,34 C10.1045695,34 11,34.8954305 11,36 C11,37.1045695 10.1045695,38 9,38 Z M17,38 C15.8954305,38 15,37.1045695 15,36 C15,34.8954305 15.8954305,34 17,34 C18.1045695,34 19,34.8954305 19,36 C19,37.1045695 18.1045695,38 17,38 Z M25,38 C23.8954305,38 23,37.1045695 23,36 C23,34.8954305 23.8954305,34 25,34 C26.1045695,34 27,34.8954305 27,36 C27,37.1045695 26.1045695,38 25,38 Z M33,38 C31.8954305,38 31,37.1045695 31,36 C31,34.8954305 31.8954305,34 33,34 C34.1045695,34 35,34.8954305 35,36 C35,37.1045695 34.1045695,38 33,38 Z M41,38 C39.8954305,38 39,37.1045695 39,36 C39,34.8954305 39.8954305,34 41,34 C42.1045695,34 43,34.8954305 43,36 C43,37.1045695 42.1045695,38 41,38 Z M5,45 C3.8954305,45 3,44.1045695 3,43 C3,41.8954305 3.8954305,41 5,41 C6.1045695,41 7,41.8954305 7,43 C7,44.1045695 6.1045695,45 5,45 Z M13,45 C11.8954305,45 11,44.1045695 11,43 C11,41.8954305 11.8954305,41 13,41 C14.1045695,41 15,41.8954305 15,43 C15,44.1045695 14.1045695,45 13,45 Z M21,45 C19.8954305,45 19,44.1045695 19,43 C19,41.8954305 19.8954305,41 21,41 C22.1045695,41 23,41.8954305 23,43 C23,44.1045695 22.1045695,45 21,45 Z M29,45 C27.8954305,45 27,44.1045695 27,43 C27,41.8954305 27.8954305,41 29,41 C30.1045695,41 31,41.8954305 31,43 C31,44.1045695 30.1045695,45 29,45 Z M37,45 C35.8954305,45 35,44.1045695 35,43 C35,41.8954305 35.8954305,41 37,41 C38.1045695,41 39,41.8954305 39,43 C39,44.1045695 38.1045695,45 37,45 Z M45,45 C43.8954305,45 43,44.1045695 43,43 C43,41.8954305 43.8954305,41 45,41 C46.1045695,41 47,41.8954305 47,43 C47,44.1045695 46.1045695,45 45,45 Z" id="Combined-Shape" fill="#50E58C"></path>
                        <path d="M32,9 L32,5 C32,4.44771525 31.5522847,4 31,4 L19,4 C18.4477153,4 18,4.44771525 18,5 L18,9 L14,9 L14,3 C14,1.34314575 15.3431458,-1.39730022e-16 17,-4.4408921e-16 L33,4.4408921e-16 C34.6568542,1.39730022e-16 36,1.34314575 36,3 L36,9 L32,9 Z" id="Combined-Shape" fill="#00AD46"></path>
                    </g>
                </g>
                <mask id="mask-4" fill="white">
                    <use xlink:href="#path-3"></use>
                </mask>
                <use id="Oval-4" fill="#9AF1C3" xlink:href="#path-3"></use>
                <path d="M56.6666667,52 L74,26 L56,26 L56,53 L56.4615385,52.3076923 L83,70 L83,52 L56.6666667,52 Z M56,79 L38,79 L56,52 L56,79 Z M29,52 L29,34 L56,52 L29,52 Z" id="Combined-Shape" fill="#FFFFFF" mask="url(#mask-4)"></path>
            </g>
        </g>
    </g>
</svg>