<?xml version="1.0" encoding="UTF-8" standalone="no"?>
<svg width="80px" height="80px" viewBox="0 0 80 80" version="1.1" xmlns="http://www.w3.org/2000/svg" xmlns:xlink="http://www.w3.org/1999/xlink">
    <!-- Generator: Sketch 48 (47235) - http://www.bohemiancoding.com/sketch -->
    <title>icon-pre-arrival</title>
    <desc>Created with Sketch.</desc>
    <defs>
        <circle id="path-1" cx="40" cy="40" r="40"></circle>
        <linearGradient x1="50%" y1="2.77555756e-15%" x2="50%" y2="73.1146365%" id="linearGradient-3">
            <stop stop-color="#E9E9E9" offset="0%"></stop>
            <stop stop-color="#FFFFFF" offset="100%"></stop>
        </linearGradient>
    </defs>
    <g id="D-1.1.1-Estagio-Internacional-candidato" stroke="none" stroke-width="1" fill="none" fill-rule="evenodd" transform="translate(-240.000000, -2743.000000)">
        <g id="Features" transform="translate(240.000000, 1897.000000)">
            <g id="Itens" transform="translate(0.000000, 502.000000)">
                <g id="04" transform="translate(0.000000, 344.000000)">
                    <g id="icon-pre-arrival">
                        <mask id="mask-2" fill="white">
                            <use xlink:href="#path-1"></use>
                        </mask>
                        <use id="Oval" fill="#7EEEAB" xlink:href="#path-1"></use>
                        <g id="Group-9" mask="url(#mask-2)">
                            <g transform="translate(7.000000, 11.000000)">
                                <path d="M11,36 L32,36 C38.0751322,36 43,40.9248678 43,47 L43,69 L0,69 L0,47 C-7.43989126e-16,40.9248678 4.92486775,36 11,36 Z" id="Rectangle" fill="#2ADD72"></path>
                                <rect id="Rectangle-8" fill="#2ADD72" x="7" y="15" width="30" height="19"></rect>
                                <polyline id="Combined-Shape" fill="url(#linearGradient-3)" points="17 33 17 36.625 17.6428571 37.25 21.5 41 25.3571429 37.25 26 36.625 26 33"></polyline>
                                <path d="M36,12 L36,19.3658537 C36,27.4480695 29.7319865,34 22,34 C14.2680135,34 8,27.4480695 8,19.3658537 L8,12" id="Rectangle-4" fill="#FFFFFF"></path>
                                <path d="M7.04107378,11 C7.54922468,4.84046948 12.7093362,1.15558935e-15 19,0 L25,0 C31.2906638,-1.15558935e-15 36.4507753,4.84046948 36.9589262,11 L37,11 L37,17 C34.790861,17 33,15.209139 33,13 L33,12.6933333 C29.3333333,13.2311111 25.6666667,13.5 22,13.5 C18.3333333,13.5 14.6666667,13.2311111 11,12.6933333 L11,13 C11,15.209139 9.209139,17 7,17 L7,11 L7.04107378,11 Z" id="Combined-Shape" fill="#2ADD72"></path>
                                <rect id="Rectangle-9" fill="#00AD46" x="10" y="43" width="44" height="17"></rect>
                                <path d="M19,47.1391753 L22.003866,53.0657216 L22.003866,55.8376289 L23.9987113,55.8376289 L23.9987113,53.0657216 L26.9561856,47.1391753 L24.810567,47.1391753 L23.4072165,50.4213918 L23.0592784,51.2912371 L23.0244845,51.2912371 L22.6649485,50.4329897 L21.2036082,47.1391753 L19,47.1391753 Z M35.1907216,51.4884021 C35.1907216,54.6430412 34.0889175,56 31.3634021,56 C28.6842784,56 27.5244845,54.5850515 27.5244845,51.4884021 C27.5244845,48.3917526 28.6494845,47 31.3634021,47 C34.0889175,47 35.1907216,48.3917526 35.1907216,51.4884021 Z M33.1494845,51.4884021 C33.1494845,49.2847938 32.6971649,48.7512887 31.3634021,48.7512887 C30.0412371,48.7512887 29.5773196,49.2847938 29.5773196,51.4884021 C29.5773196,53.6920103 30.0528351,54.2487113 31.375,54.2487113 C32.685567,54.2487113 33.1494845,53.6804124 33.1494845,51.4884021 Z M43.4136598,47.1391753 L41.4768041,47.1391753 L41.4768041,52.7061856 C41.4768041,53.7731959 41.0128866,54.2255155 39.9226804,54.2255155 C38.8324742,54.2255155 38.3569588,53.7615979 38.3569588,52.7061856 L38.3569588,47.1391753 L36.4085052,47.1391753 L36.4085052,52.7293814 C36.4085052,54.9213918 37.6262887,56 39.9226804,56 C42.2306701,56 43.4136598,54.9213918 43.4136598,52.7293814 L43.4136598,47.1391753 Z" id="you" fill="#50E58C"></path>
                                <path d="M13,57 L9,57 C7.8954305,57 7,56.1045695 7,55 L7,48 C7,46.8954305 7.8954305,46 9,46 L13,46 C13.5522847,46 14,46.4477153 14,47 C14,47.5522847 13.5522847,48 13,48 L13,49 C13.5522847,49 14,49.4477153 14,50 C14,50.5522847 13.5522847,51 13,51 L13,52 C13.5522847,52 14,52.4477153 14,53 C14,53.5522847 13.5522847,54 13,54 L13,55 C13.5522847,55 14,55.4477153 14,56 C14,56.5522847 13.5522847,57 13,57 Z" id="Combined-Shape" fill="#F8F8F9"></path>
                                <path d="M56,57 L52,57 C50.8954305,57 50,56.1045695 50,55 L50,48 C50,46.8954305 50.8954305,46 52,46 L56,46 C56.5522847,46 57,46.4477153 57,47 C57,47.5522847 56.5522847,48 56,48 L56,49 C56.5522847,49 57,49.4477153 57,50 C57,50.5522847 56.5522847,51 56,51 L56,52 C56.5522847,52 57,52.4477153 57,53 C57,53.5522847 56.5522847,54 56,54 L56,55 C56.5522847,55 57,55.4477153 57,56 C57,56.5522847 56.5522847,57 56,57 Z" id="Combined-Shape-Copy" fill="#F8F8F9" transform="translate(53.500000, 51.500000) scale(-1, 1) translate(-53.500000, -51.500000) "></path>
                            </g>
                        </g>
                    </g>
                </g>
            </g>
        </g>
    </g>
</svg>